<svg xmlns="http://www.w3.org/2000/svg" width="24" height="19.5" viewBox="0 0 24 19.5">
  <path id="_5eb85fb9f92b5875d81ae782_twitter" data-name="5eb85fb9f92b5875d81ae782_twitter" d="M24,4.308a10.258,10.258,0,0,1-2.835.777A4.893,4.893,0,0,0,23.33,2.366a9.833,9.833,0,0,1-3.12,1.191A4.92,4.92,0,0,0,11.7,6.922a5.066,5.066,0,0,0,.114,1.122A13.927,13.927,0,0,1,1.671,2.9,4.922,4.922,0,0,0,3.183,9.473,4.859,4.859,0,0,1,.96,8.867v.054A4.943,4.943,0,0,0,4.9,13.755a4.911,4.911,0,0,1-1.29.162,4.35,4.35,0,0,1-.931-.084,4.967,4.967,0,0,0,4.6,3.427,9.886,9.886,0,0,1-6.1,2.1A9.216,9.216,0,0,1,0,19.292,13.852,13.852,0,0,0,7.548,21.5a13.907,13.907,0,0,0,14-14c0-.218-.007-.428-.018-.636A9.816,9.816,0,0,0,24,4.308Z" transform="translate(0 -2)" fill="#fff"/>
</svg>
