<svg xmlns="http://www.w3.org/2000/svg" xmlns:xlink="http://www.w3.org/1999/xlink" width="24" height="24" viewBox="0 0 24 24">
  <defs>
    <clipPath id="clip-path">
      <rect id="Rectangle_2" data-name="Rectangle 2" width="24" height="24" fill="#fff"/>
    </clipPath>
  </defs>
  <g id="_5eb85fb8074356000ffd0b5d_linkedin" data-name="5eb85fb8074356000ffd0b5d_linkedin" clip-path="url(#clip-path)">
    <path id="Path_4" data-name="Path 4" d="M24.119,24h.006V15.2c0-4.306-.927-7.623-5.961-7.623a5.226,5.226,0,0,0-4.707,2.587h-.07V7.976H8.615V24h4.97V16.065c0-2.089.4-4.109,2.983-4.109,2.549,0,2.587,2.384,2.587,4.243V24Z" fill="#fff"/>
    <path id="Path_5" data-name="Path 5" d="M.522,7.977H5.5V24H.522Z" fill="#fff"/>
    <path id="Path_6" data-name="Path 6" d="M3.008,0A2.9,2.9,0,1,0,5.89,2.882,2.883,2.883,0,0,0,3.008,0Z" fill="#fff"/>
  </g>
</svg>
