<svg width="248" height="306" viewBox="0 0 248 306" fill="none" xmlns="http://www.w3.org/2000/svg">
<path d="M122.423 271.1L123.123 300.5L72.1226 301C72.1226 301 71.8226 295 81.5226 290.5C91.2226 286 93.2226 268.2 93.2226 268.2L122.423 271.1Z" fill="#FAAD13"/>
<path d="M71.4226 301.7L123.923 301.2L123.223 270.4L92.6226 267.4L92.5226 268.1C92.5226 268.3 90.4226 285.5 81.2226 289.8C71.2226 294.4 71.3226 300.7 71.3226 301L71.4226 301.7ZM122.323 299.7L72.9226 300.2C73.2226 298.6 74.6226 294.5 81.8226 291.2C90.7226 287.1 93.3226 272.5 93.8226 269.1L121.623 271.9L122.323 299.7Z" fill="#FAAD13"/>
<path d="M214.223 258.7L225.123 286L177.523 304.2C177.523 304.2 175.223 298.7 182.723 291.1C190.223 283.5 185.923 266.1 185.923 266.1L214.223 258.7Z" fill="#FAAD13"/>
<path d="M177.023 305.2L226.023 286.4L214.623 257.8L184.923 265.6L185.123 266.3C185.123 266.5 189.223 283.4 182.123 290.6C174.323 298.4 176.723 304.3 176.823 304.5L177.023 305.2ZM224.123 285.5L178.023 303.2C177.723 301.6 177.623 297.2 183.223 291.6C190.123 284.6 187.523 270.1 186.823 266.7L213.823 259.6L224.123 285.5Z" fill="#FAAD13"/>
<path d="M177.423 139C185.723 152.8 189.223 191.3 198.423 211C207.623 230.7 218.423 262.5 218.423 262.5L180.723 278.5C180.723 278.5 155.023 221 152.123 191C149.223 161 149.923 135 149.923 135L177.423 139Z" fill="#030047"/>
<path d="M161.423 154C160.623 170 140.123 200.2 136.823 221.8C133.523 243.4 124.923 282.3 124.923 282.3L84.6226 274.7C84.6226 274.7 89.9226 214.3 107.423 177C120.223 149.7 138.623 131.6 138.623 131.6L161.423 154Z" fill="#030047"/>
<path d="M152.923 180C153.223 180 153.423 179.9 153.623 179.6L156.123 175.1L163.623 172.4C164.023 172.3 164.223 171.8 164.123 171.4C164.023 171 163.523 170.8 163.123 170.9L155.123 173.7L152.423 178.7C152.223 179.1 152.323 179.5 152.723 179.7C152.723 180 152.823 180 152.923 180Z" fill="white"/>
<path d="M186.023 281.2C187.523 282 189.123 282.9 190.623 283.7C191.223 284 190.723 284.9 190.123 284.6C188.623 283.8 187.023 282.9 185.523 282.1C184.923 281.8 185.423 280.9 186.023 281.2Z" fill="#030047"/>
<path d="M185.223 284.4C186.423 285.4 187.723 286.3 188.923 287.3C189.423 287.7 188.923 288.6 188.423 288.2L184.723 285.3C184.223 284.8 184.723 284 185.223 284.4Z" fill="#030047"/>
<path d="M87.9227 283.2C88.5227 284.5 89.1227 285.7 89.8227 287C90.1227 287.6 89.2227 288.1 88.9227 287.5L87.0227 283.7C86.8227 283.1 87.7227 282.6 87.9227 283.2Z" fill="#030047"/>
<path d="M85.1226 286.5C85.7226 287.8 86.3226 289 87.0226 290.3C87.3226 290.9 86.4226 291.4 86.1226 290.8L84.2226 287C83.9226 286.5 84.8226 286 85.1226 286.5Z" fill="#030047"/>
<path d="M92.4228 273.4C92.8228 273.4 93.1228 273.1 93.1228 272.7C94.7228 214.7 129.223 151.6 129.523 151C129.723 150.6 129.623 150.2 129.223 150C128.823 149.8 128.423 149.9 128.223 150.3C127.923 150.9 93.3228 214.3 91.6228 272.7C91.6228 273.1 92.0228 273.4 92.4228 273.4Z" fill="white"/>
<path d="M122.623 164C122.723 164 122.823 164 122.923 164C123.323 163.9 123.523 163.4 123.323 163C121.423 157.9 123.723 150.9 123.723 150.8C123.823 150.4 123.623 150 123.223 149.8C122.823 149.7 122.423 149.9 122.223 150.3C122.123 150.6 119.623 157.9 121.823 163.5C122.023 163.8 122.323 164 122.623 164Z" fill="white"/>
<path d="M127.723 51.3999C124.623 58.7999 124.423 66.6999 134.123 69.7999C140.723 71.8999 148.623 68.7999 151.723 61.3999C154.823 53.9999 151.923 45.7999 145.323 42.9999C138.723 40.2999 130.823 43.9999 127.723 51.3999Z" fill="white"/>
<path d="M138.323 71.2C144.223 71.2 150.023 67.6 152.423 61.7C154.023 58 154.123 53.9 152.923 50.2C151.623 46.5 149.023 43.7 145.623 42.3C138.623 39.4 130.323 43.3 127.023 51.1C124.823 56.4 124.523 60.9 126.023 64.3C127.323 67.2 130.023 69.2 133.823 70.5C135.423 71 136.923 71.2 138.323 71.2ZM140.823 42.9C142.223 42.9 143.723 43.2 145.123 43.8C148.123 45.1 150.423 47.5 151.523 50.8C152.623 54.1 152.523 57.8 151.123 61.2C148.023 68.5 140.223 71 134.423 69.1C130.923 68 128.623 66.2 127.523 63.7C126.123 60.7 126.423 56.6 128.523 51.7C130.723 46.2 135.723 42.9 140.823 42.9Z" fill="#030047"/>
<path d="M133.223 51.7C132.67 51.7 132.223 51.2522 132.223 50.7C132.223 50.1477 132.67 49.7 133.223 49.7C133.775 49.7 134.223 50.1477 134.223 50.7C134.223 51.2522 133.775 51.7 133.223 51.7Z" fill="#030047"/>
<path d="M132.523 41.4C132.523 34.8 143.423 42.2 145.323 43.1C151.223 44.2 156.423 52 154.623 58.9C153.123 64.8 146.323 71.8 142.723 70.1C136.823 66.6 135.923 60.8 138.623 55.3C137.623 54.1 138.823 52.3 138.323 50.9C137.623 48.6 132.423 43.7 132.523 41.4Z" fill="#030047"/>
<path d="M140.723 54.7C151.723 53.7 150.423 62.5 146.323 64.5C142.923 66.1 137.723 65.5 135.623 60.5C133.523 55.6 140.723 54.7 140.723 54.7Z" fill="white"/>
<path d="M139.723 58.5C141.823 57.4 144.423 57.9 145.923 59.8C146.323 60.3 145.623 61 145.223 60.5C144.023 59 141.923 58.5 140.223 59.4C139.623 59.6 139.123 58.8 139.723 58.5Z" fill="#030047"/>
<path d="M126.923 53.7999C128.023 51.8999 129.423 50.0999 131.123 48.5999C131.623 48.1999 132.323 48.8999 131.823 49.2999C130.223 50.7999 128.923 52.3999 127.823 54.2999C127.423 54.8999 126.623 54.3999 126.923 53.7999Z" fill="#030047"/>
<path d="M174.723 151.3H175.323C175.723 151.3 184.223 150.9 194.223 142.5L195.123 141.8L168.723 129L174.723 151.3ZM192.323 142.1C184.523 148.3 177.723 149.5 175.823 149.7L171.023 131.7L192.323 142.1Z" fill="#030047"/>
<path d="M205.623 100.6C209.623 114 206.523 135 195.823 142.6C195.823 142.6 182.323 137.9 179.123 138.6C175.723 132.8 171.823 127.4 168.223 121.7C172.823 119.9 176.923 118.5 177.823 113.3C180.423 99.3 163.823 102.3 152.823 105.6C150.123 94.8 149.123 77.9 149.123 77.9C175.823 71.1 199.323 79.5 205.623 100.6Z" fill="#FAAD13"/>
<path d="M196.023 143.5L196.323 143.3C207.123 135.6 210.523 114.3 206.423 100.4C200.123 79.3 177.123 70 149.123 77.2L148.523 77.4V78C148.523 78.2 149.523 95.1 152.223 105.8L152.423 106.6L153.223 106.4C164.523 103 172.223 102.8 175.523 105.7C177.223 107.3 177.823 109.8 177.223 113.2C176.323 117.9 172.723 119.3 168.223 121L167.323 121.3L167.723 122.1C168.923 124 170.223 125.9 171.423 127.8C173.823 131.4 176.323 135.2 178.523 139L178.823 139.5L179.323 139.4C181.523 138.9 190.223 141.5 195.523 143.4L196.023 143.5ZM204.923 100.8C208.923 114 205.823 134.2 195.723 141.8C193.323 141 183.223 137.6 179.623 137.8C177.423 134.1 175.023 130.5 172.723 127C171.623 125.4 170.523 123.8 169.523 122.1C173.923 120.4 177.823 118.7 178.723 113.4C179.423 109.4 178.723 106.4 176.623 104.5C172.923 101.2 165.223 101.2 153.623 104.6C151.423 95.2 150.423 81.5 150.123 78.4C176.923 71.8 198.923 80.7 204.923 100.8Z" fill="#FAAD13"/>
<path d="M166.323 138.7H193.123C195.823 138.7 198.123 136.5 198.123 133.7V95.6C198.123 92.9 195.923 90.6 193.123 90.6H166.323C163.623 90.6 161.323 92.8 161.323 95.6V133.7C161.423 136.5 163.623 138.7 166.323 138.7Z" fill="white"/>
<path d="M166.323 139.4H193.123C196.223 139.4 198.823 136.8 198.823 133.7V95.6C198.823 92.5 196.223 89.9 193.123 89.9H166.323C163.223 89.9 160.623 92.5 160.623 95.6V133.7C160.623 136.9 163.223 139.4 166.323 139.4ZM193.123 91.4C195.423 91.4 197.323 93.3 197.323 95.6V133.7C197.323 136 195.423 137.9 193.123 137.9H166.323C164.023 137.9 162.123 136 162.123 133.7V95.6C162.123 93.3 164.023 91.4 166.323 91.4H193.123Z" fill="#030047"/>
<path d="M190.923 90.6H193.123C195.823 90.6 198.123 92.8 198.123 95.6V133.7C198.123 136.4 195.923 138.7 193.123 138.7H190.923V90.6Z" fill="#030047"/>
<path d="M194.523 130.6H198.423C200.223 130.6 201.723 129.1 201.723 127.3V126.7C201.723 124.9 200.223 123.4 198.423 123.4H194.523V130.6Z" fill="#030047"/>
<path d="M241.223 295.9C241.623 295.9 242.023 295.6 242.023 295.1V224.2C242.023 216.8 236.023 210.8 228.623 210.8H223.423C216.823 210.8 211.523 205.5 211.523 198.9V139.6C211.523 132.2 205.523 126.2 198.123 126.2C197.723 126.2 197.323 126.5 197.323 127C197.323 127.5 197.623 127.8 198.123 127.8C204.723 127.8 210.023 133.1 210.023 139.7V199.2C210.023 206.6 216.023 212.6 223.423 212.6H228.623C235.223 212.6 240.523 217.9 240.523 224.5V295.4C240.423 295.6 240.823 295.9 241.223 295.9Z" fill="#030047"/>
<path d="M235.423 296.9H247.023V291.1C247.023 287.9 244.423 285.3 241.223 285.3C238.023 285.3 235.423 287.9 235.423 291.1V296.9V296.9Z" fill="#030047"/>
<path d="M141.223 78.0999C156.823 74.6999 163.123 82.0999 168.723 104.9C174.323 127.7 184.323 140.9 184.323 140.9C184.323 140.9 138.923 153.7 119.623 150.9C119.723 151 108.123 85.2999 141.223 78.0999Z" fill="#FAAD13"/>
<path d="M126.223 152.2C147.323 152.2 183.023 142.2 184.623 141.7L185.723 141.4L185.023 140.5C184.923 140.4 175.023 127.1 169.523 104.7C163.623 80.6 156.723 73.9 141.123 77.3C127.223 80.3 119.023 94.1 117.323 117.1C116.123 134.3 118.923 150.9 119.023 151L119.123 151.5L119.623 151.6C121.623 152.1 123.823 152.2 126.223 152.2ZM183.223 140.6C176.423 142.4 137.923 152.6 120.423 150.4C119.423 144.1 111.023 85.5 141.423 78.9C156.123 75.7 162.323 81.8 168.023 105.2C172.823 124.5 180.923 137.2 183.223 140.6Z" fill="#FAAD13"/>
<path d="M153.723 80.8L152.123 72.9L130.823 75.3L133.323 84.9L153.723 80.8Z" fill="#FAAD13"/>
<path d="M132.823 85.8L154.523 81.3L152.623 72L129.823 74.6L132.823 85.8ZM152.823 80.2L133.923 84.1L131.823 76L151.523 73.8L152.823 80.2Z" fill="#FAAD13"/>
<path d="M58.6227 65C58.9227 59.9 62.7227 59 62.7227 59C63.0227 56 67.3227 55.1 67.3227 55.1C66.1227 49.4 64.3227 47.5 65.2227 45.8C66.5227 43.2 68.9227 45 71.7227 50.7C72.3227 50.2 73.2226 50.2 74.8226 51.4C78.4226 54.1 79.9226 61.4 78.8226 69.9C78.8226 69.9 78.8226 69.9 78.8226 70C79.1226 70.7 79.4227 71.3 79.7227 71.8L66.2227 89.5C66.2227 89.5 63.1227 87.6 62.3227 81.3C61.8227 77.8 61.2227 72.7 60.7227 70.1C57.8227 70.6 58.5227 67.6 58.6227 65Z" fill="white"/>
<path d="M66.3226 90.5L80.6226 71.9L80.4226 71.5C80.1226 71 79.8226 70.5 79.6226 69.9C80.8226 61.2 79.1226 53.7 75.3226 50.9C74.0226 50 73.0226 49.6 72.1226 49.8C70.1226 45.9 68.4226 44 66.8226 44C66.2226 44 65.3226 44.3 64.7226 45.6C64.1226 46.9 64.5226 48.1 65.2226 50C65.6226 51.2 66.2226 52.7 66.6226 54.8C65.3226 55.2 62.7226 56.3 62.2226 58.7C61.1226 59.2 58.3226 60.7 58.1226 65.2C58.1226 65.6 58.0226 65.9 58.0226 66.3C57.9226 68 57.7226 69.7 58.7226 70.6C59.1226 71 59.6226 71.1 60.2226 71.1C60.6226 73.1 61.0226 76.1 61.3226 78.7C61.4226 79.7 61.6226 80.7 61.7226 81.5C62.6226 88.1 65.8226 90.2 66.0226 90.3L66.3226 90.5ZM78.8226 71.7L66.1226 88.4C65.3226 87.6 63.6226 85.4 63.0226 81.2C62.9226 80.3 62.8226 79.4 62.6226 78.4C62.2226 75.4 61.8226 71.9 61.3226 70L61.1226 69.3L60.4225 69.4C60.1225 69.5 59.6225 69.5 59.4225 69.3C59.0225 68.9 59.1226 67.4 59.2226 66.2C59.2226 65.8 59.3226 65.4 59.3226 65.1C59.5226 60.7 62.7226 59.8 62.8226 59.8L63.3226 59.7L63.4225 59.2C63.6225 56.8 67.4225 56 67.4225 55.9L68.1226 55.7L67.9225 55C67.4225 52.5 66.7226 50.7 66.3226 49.3C65.7226 47.6 65.4226 46.8 65.8226 46.1C66.1226 45.6 66.3226 45.3 66.6226 45.3C66.9226 45.3 68.3225 45.6 70.9225 51L71.3226 51.9L72.0226 51.2C72.5226 50.8 73.6226 51.6 74.1226 51.9C77.4226 54.4 78.9226 61.5 77.8226 69.7V69.9L77.9226 70.1C78.3226 70.8 78.5226 71.3 78.8226 71.7Z" fill="#030047"/>
<path d="M71.1226 50L85.4226 64.4C87.1226 66.1 84.4226 68.8 82.1226 66.5L73.8225 58.3C73.4225 55.6 72.7226 52.9 71.1226 50Z" fill="#030047"/>
<path d="M63.0225 44.4999C63.4225 44.0999 64.7225 44.4999 65.8225 44.9999C64.8225 46.2999 65.2225 48.1999 65.6225 49.7999L64.5225 48.6999C63.6225 47.7999 62.3225 45.1999 63.0225 44.4999Z" fill="#030047"/>
<path d="M68.3226 56.9001L69.0226 58.9001C69.2226 59.5001 68.3226 59.8 68.0226 59.2C67.8226 58.5 67.5226 57.9 67.3226 57.2C67.1226 56.6 68.1226 56.3001 68.3226 56.9001Z" fill="#030047"/>
<path d="M59.5226 65.3C59.6226 64.7 60.6226 64.9 60.5226 65.6C60.4226 66.4 60.5226 67.2 60.8226 68C61.0226 68.6 60.1226 68.9 59.8226 68.3C59.4226 67.3 59.3226 66.3 59.5226 65.3Z" fill="#030047"/>
<path d="M72.0227 50.8C73.2227 53.1 74.5227 56.9 74.9227 59.5C75.0227 60.1 74.0227 60.4 73.9227 59.8C73.5227 57.3 72.3227 53.6 71.1227 51.4C70.9227 50.8 71.7227 50.3 72.0227 50.8Z" fill="#030047"/>
<path d="M63.8226 59.9001C64.0226 60.3001 64.1226 60.8 64.3226 61.2C64.5226 61.8 63.6226 62.1 63.3226 61.5C63.1226 61.1 63.0226 60.6 62.8226 60.2C62.7226 59.6 63.6226 59.3001 63.8226 59.9001Z" fill="#030047"/>
<path d="M79.3226 71.1C84.6226 81.7 88.0226 85.6 94.3226 87.4C103.823 90.2 126.523 77.7 140.723 80L144.123 109.1C144.123 109.1 123.523 122.5 99.7226 120.6C79.1226 118.9 65.4225 97.8 62.9225 87.4C65.4225 80.5 73.6226 74.9 79.3226 71.1Z" fill="#FAAD13"/>
<path d="M104.423 121.6C126.123 121.6 144.323 109.9 144.523 109.8L144.923 109.5L141.423 79.4L140.823 79.3C133.323 78 123.723 80.8 114.523 83.4C106.523 85.7 98.9226 87.9 94.5226 86.6C88.5226 84.9 85.2226 81.3 79.9226 70.7L79.5226 69.9L78.8226 70.4C73.2226 74.2 64.7226 79.9 62.1226 87.1L62.0226 87.3L62.1226 87.5C64.7226 98.1 78.7226 119.6 99.5226 121.3C101.323 121.5 102.923 121.6 104.423 121.6ZM143.323 108.7C140.423 110.5 121.323 121.6 99.8226 119.8C79.8226 118.2 66.3226 97.7 63.7226 87.4C66.1226 81 73.6226 75.8 79.0226 72.1C84.2226 82.5 87.8226 86.2 94.1226 88C98.9226 89.4 106.723 87.1 115.023 84.8C123.423 82.4 132.923 79.6 140.123 80.6L143.323 108.7Z" fill="#FAAD13"/>
<path d="M121.923 118.7C122.023 118.7 122.123 118.7 122.223 118.6C122.223 118.6 125.723 117.1 129.123 117.1C129.523 117.1 129.823 116.8 129.923 116.4C129.923 116 129.523 115.6 129.123 115.6C125.423 115.6 121.823 117.1 121.623 117.2C121.223 117.4 121.023 117.8 121.223 118.2C121.323 118.5 121.623 118.7 121.923 118.7Z" fill="#030047"/>
<path d="M32.0226 46.0001H63.8227C64.2227 46.0001 64.6227 45.7001 64.6227 45.2001C64.6227 44.7001 64.3227 44.4001 63.8227 44.4001H33.5226V3.80005H76.1227V24.1001C76.1227 24.5001 76.4227 24.9001 76.9227 24.9001C77.4227 24.9001 77.7227 24.6001 77.7227 24.1001V2.30005H32.1227V46.0001H32.0226Z" fill="#030047"/>
<path d="M43.4226 10.5999C44.4226 10.0999 45.6226 10.3999 46.1226 11.3999L55.7226 29.0999L61.6226 22.8999C62.3226 22.1999 63.4226 21.9999 64.2226 22.4999C65.3226 23.1999 65.4226 24.5999 64.6226 25.4999L57.8226 32.7999L56.3226 34.3999C55.6226 35.0999 54.5226 34.9999 54.0226 34.0999L52.9226 32.1999L42.6226 13.3999C42.1226 12.3999 42.4226 11.1999 43.4226 10.5999Z" fill="#FAAD13"/>
<path d="M29.7227 0H35.8228V6.1H29.7227V0Z" fill="#030047"/>
<path d="M55.0985 119.842L64.4656 140.957L43.3499 150.324L33.9828 129.209L55.0985 119.842Z" fill="white"/>
<path d="M42.9229 151.3L65.4229 141.3L55.4229 118.8L32.9229 128.8L42.9229 151.3ZM63.5229 140.5L43.7229 149.3L34.9229 129.5L54.7229 120.7L63.5229 140.5Z" fill="#030047"/>
<path d="M58.5227 95.8999L36.8227 114.6C36.8227 114.6 28.4227 100.9 36.8227 93.1999C47.3227 83.5999 58.5227 95.8999 58.5227 95.8999Z" fill="white"/>
<path d="M36.6227 115.8L59.5227 95.9999L59.0227 95.3999C58.8227 95.0999 53.2227 89.0999 46.1227 88.7999C42.5227 88.5999 39.2227 89.8999 36.3227 92.5999C27.5227 100.6 35.8227 114.4 36.2227 115L36.6227 115.8ZM57.4227 95.8999L37.0227 113.5C35.4227 110.6 30.6227 99.9999 37.3227 93.7999C40.0227 91.3999 42.9227 90.1999 46.0227 90.2999C51.3227 90.4999 55.8227 94.3999 57.4227 95.8999Z" fill="#030047"/>
<path d="M45.7227 117.3C42.3538 117.3 39.6227 114.569 39.6227 111.2C39.6227 107.831 42.3538 105.1 45.7227 105.1C49.0917 105.1 51.8228 107.831 51.8228 111.2C51.8228 114.569 49.0917 117.3 45.7227 117.3Z" fill="white"/>
<path d="M45.7227 118C49.5227 118 52.5227 114.9 52.5227 111.2C52.5227 107.5 49.4227 104.4 45.7227 104.4C42.0227 104.4 38.9227 107.5 38.9227 111.2C38.9227 114.9 42.0227 118 45.7227 118ZM45.7227 105.8C48.6227 105.8 51.0227 108.2 51.0227 111.1C51.0227 114 48.6227 116.4 45.7227 116.4C42.8227 116.4 40.4227 114 40.4227 111.1C40.4227 108.2 42.8227 105.8 45.7227 105.8Z" fill="#030047"/>
<path d="M29.4228 155.9C29.6228 155.9 29.9228 155.8 30.0228 155.6L33.4228 151C33.6228 150.7 33.6228 150.2 33.2228 150C32.9228 149.8 32.4228 149.8 32.2228 150.2L28.8228 154.8C28.6228 155.1 28.6228 155.6 29.0228 155.8C29.1228 155.9 29.2228 155.9 29.4228 155.9Z" fill="#030047"/>
<path d="M100.223 139.4C100.423 139.4 100.623 139.3 100.823 139.2C101.123 138.9 101.123 138.4 100.723 138.1L92.9228 131.1C92.6228 130.8 92.1228 130.8 91.8228 131.2C91.5228 131.5 91.5228 132 91.9228 132.3L99.7228 139.3C99.8228 139.4 100.023 139.4 100.223 139.4Z" fill="#030047"/>
<path d="M70.2228 125C70.4228 125 70.6228 124.9 70.8228 124.7L73.6228 121.3C73.9228 121 73.8228 120.5 73.5228 120.2C73.2228 119.9 72.7228 120 72.4228 120.3L69.6228 123.7C69.3228 124 69.4228 124.5 69.7228 124.8C69.8228 124.9 70.0228 125 70.2228 125Z" fill="#030047"/>
<path d="M32.8229 59.4C33.0229 59.4 33.1229 59.3 33.3229 59.2C33.6229 58.9 33.7229 58.5 33.4229 58.1L30.0229 54C29.7229 53.7 29.3229 53.6 28.9229 53.9C28.6229 54.2 28.5229 54.6 28.8229 55L32.2229 59.1C32.3229 59.3 32.6229 59.4 32.8229 59.4Z" fill="#030047"/>
<path d="M1.22276 96.7C1.42276 96.7 1.62277 96.6 1.82277 96.4L8.82277 88C9.12277 87.7 9.02276 87.2 8.72276 86.9C8.42276 86.6 7.92276 86.7 7.62276 87L0.622758 95.4C0.322758 95.7 0.422764 96.2 0.722764 96.5C0.822764 96.6 1.02276 96.7 1.22276 96.7Z" fill="#030047"/>
<path d="M86.0228 24.9C86.1228 24.9 86.1228 24.9 86.2228 24.9L92.6228 23.4C93.0228 23.3 93.3228 22.9 93.2228 22.5C93.1228 22.1 92.7228 21.8 92.3228 21.9L85.9228 23.4C85.5228 23.5 85.2228 23.9 85.3228 24.3C85.3228 24.6 85.7228 24.9 86.0228 24.9Z" fill="#030047"/>
<path d="M20.2227 67.8H51.5227V99.1001H20.2227V67.8Z" fill="white"/>
<path d="M19.5227 99.8H52.3228V67H19.5227V99.8ZM50.8228 98.3H21.0227V68.5H50.8228V98.3Z" fill="#030047"/>
<path d="M39.6228 142.7H86.6228V189.7H39.6228V142.7Z" fill="white"/>
<path d="M38.8228 190.5H87.3228V142H38.8228V190.5ZM85.8228 189H40.3228V143.5H85.8228V189Z" fill="#030047"/>
<path d="M29.4228 90.6C29.6228 90.6 29.8228 90.5 29.9228 90.4L42.8229 77.5C43.1229 77.2 43.1229 76.7 42.8229 76.4C42.5229 76.1 42.0228 76.1 41.7228 76.4L28.8229 89.3C28.5229 89.6 28.5229 90.1 28.8229 90.4C29.0229 90.6 29.2228 90.6 29.4228 90.6Z" fill="#030047"/>
<path d="M42.3229 90.6C42.5229 90.6 42.7229 90.5 42.8229 90.4C43.1229 90.1 43.1229 89.6 42.8229 89.3L29.9228 76.4C29.6228 76.1 29.1229 76.1 28.8229 76.4C28.5229 76.7 28.5229 77.2 28.8229 77.5L41.7228 90.4C42.0228 90.6 42.2229 90.6 42.3229 90.6Z" fill="#030047"/>
<path d="M52.7228 158.8H73.0228C73.4228 158.8 73.8228 158.5 73.8228 158C73.8228 157.5 73.5228 157.2 73.0228 157.2H52.7228C52.3228 157.2 51.9227 157.5 51.9227 158C51.9227 158.5 52.3228 158.8 52.7228 158.8Z" fill="#030047"/>
<path d="M52.7228 165.2H73.0228C73.4228 165.2 73.8228 164.9 73.8228 164.4C73.8228 163.9 73.5228 163.6 73.0228 163.6H52.7228C52.3228 163.6 51.9227 163.9 51.9227 164.4C51.9227 164.9 52.3228 165.2 52.7228 165.2Z" fill="#030047"/>
<path d="M52.7228 171.5H56.8228C57.2228 171.5 57.6228 171.2 57.6228 170.7C57.6228 170.2 57.3228 169.9 56.8228 169.9H52.7228C52.3228 169.9 51.9228 170.2 51.9228 170.7C51.9228 171.2 52.3228 171.5 52.7228 171.5Z" fill="#030047"/>
<path d="M60.6228 171.5H73.0228C73.4228 171.5 73.8228 171.2 73.8228 170.7C73.8228 170.2 73.5228 169.9 73.0228 169.9H60.6228C60.2228 169.9 59.8228 170.2 59.8228 170.7C59.8228 171.2 60.2228 171.5 60.6228 171.5Z" fill="#030047"/>
</svg>
