<svg width="256" height="351" viewBox="0 0 256 351" fill="none" xmlns="http://www.w3.org/2000/svg">
<path d="M204.5 180.3L224.2 170.6L204.5 157.1V180.3ZM221.3 170.4L206 177.9V159.9L221.3 170.4Z" fill="#030047"/>
<path d="M205.4 140.1L204.6 127.9L193.4 135.1L205.4 140.1ZM203.3 130.5L203.7 137.8L196.6 134.8L203.3 130.5Z" fill="#030047"/>
<path d="M224 158.6C224.3 158.6 224.6 158.4 224.7 158.1L226.9 152.1C227 151.7 226.8 151.3 226.5 151.1C226.1 151 225.7 151.2 225.5 151.5L223.3 157.5C223.2 157.9 223.4 158.3 223.7 158.5C223.8 158.6 223.9 158.6 224 158.6Z" fill="#030047"/>
<path d="M228.1 156.7C228.4 156.7 228.7 156.5 228.8 156.2C228.9 155.8 228.7 155.4 228.4 155.2L222.4 153C222 152.9 221.6 153.1 221.4 153.4C221.3 153.8 221.5 154.2 221.8 154.4L227.8 156.6C227.9 156.7 228 156.7 228.1 156.7Z" fill="#030047"/>
<path d="M185.3 201.4C165.8 228 160.6 240.3 160.6 240.3C160.6 240.3 165.7 269.9 167.1 295.1C167.4 299.9 167.3 304.6 166.8 308.9C166.8 308.9 142.6 310 126.2 305.9C126.2 305.9 126 301.9 133.2 300.9C140.4 299.9 142.2 285.4 142.2 285.4L120.7 213.7L185.3 201.4Z" fill="white"/>
<path d="M159.5 309.8C163.9 309.8 166.8 309.7 166.9 309.7H167.5L167.6 309.1C168.1 305 168.2 300.3 167.9 295.2C166.6 271.4 161.9 243.3 161.4 240.5C162.2 238.8 168.1 226.4 185.9 201.9L187 200.4L119.8 213.2L141.5 285.5C141.3 287 139.3 299.4 133.2 300.2C125.5 301.3 125.5 305.8 125.6 306V306.6L126.1 306.7C136.8 309.3 151 309.8 159.5 309.8ZM166.2 308.2C162.3 308.3 141.7 308.8 127.1 305.4C127.4 304.4 128.5 302.4 133.4 301.7C141 300.6 143 286.1 143 285.5V285.3V285.1L121.7 214.2L183.5 202.4C165.1 227.7 159.9 239.8 159.8 239.9L159.7 240.1V240.3C159.8 240.6 164.8 270.1 166.2 295C166.6 300 166.6 304.3 166.2 308.2Z" fill="#030047"/>
<path d="M126.3 305.9C130.7 307 135.6 307.7 140.4 308.2C148.3 309 156 309.1 161.1 309C164.6 309 166.8 308.9 166.8 308.9C167.3 304.6 167.3 300 167.1 295.1C163.2 295 159.2 294.8 155.3 294.4C152.9 294.2 150.5 294 148.2 293.7C145.6 293.4 143.1 293 140.5 292.6C140.2 293.5 139.8 294.4 139.4 295.3C139.3 295.6 139.1 295.9 138.9 296.2C138.5 297 138 297.7 137.4 298.3C137.2 298.6 137 298.8 136.7 299C135.7 300 134.6 300.6 133.2 300.8C126.1 301.9 126.3 305.9 126.3 305.9Z" fill="#030047"/>
<path d="M132.5 211.4L185.3 201.4C171.7 220 167.6 231.6 163.4 236.9C153 230.6 142 221.8 131.4 214.6C131.8 213.5 132.1 212.5 132.5 211.4Z" fill="#030047"/>
<path d="M138.9 296.2C140.3 297.2 141.3 298.6 142 300.3C142.2 300.9 143.2 300.6 143 300C142.3 298.1 141 296.4 139.4 295.3C139.2 295.6 139.1 295.9 138.9 296.2Z" fill="white"/>
<path d="M136.8 299.1C137.7 299.8 138.5 300.6 139.1 301.6C139.4 302.2 140.3 301.7 140 301.1C139.4 300 138.6 299.1 137.6 298.3C137.2 298.6 137 298.8 136.8 299.1Z" fill="white"/>
<path d="M65.3001 182.3C78.4001 187.2 102.5 193.8 116.2 196.4C119.4 197 107.9 199.1 104.7 198.5C90.5001 195.8 76.7001 191.9 63.2001 186.9C60.2001 185.7 62.3001 181.2 65.3001 182.3Z" fill="#030047"/>
<path d="M36.3002 159C40.4002 159.2 48.7002 159.1 52.3002 161.3C55.0002 163 55.8002 165.9 56.0002 168.9C61.7002 169.1 67.4002 169.3 73.0002 169.4C73.6002 165.4 75.3002 162.6 83.7002 164.4C86.2002 165 81.0002 168.4 78.7002 167.4C77.2002 168.4 76.6002 169.8 76.9002 171.4C76.9002 172.5 76.0002 173.4 74.9002 173.4L54.1002 172.7C53.0002 172.7 52.1002 171.8 52.1002 170.7C52.0002 167 51.0002 164.5 47.0002 163.8C44.5002 163.4 40.5002 163.1 37.6002 162.9C37.3002 161.7 36.8002 160.3 36.3002 159Z" fill="#030047"/>
<path d="M174.4 221.4C176 221.8 177.6 222.3 179.2 222.8C171.5 244.2 160.7 266.4 148.9 285.5C147.5 284.6 146 283.8 144.4 283.3C156 264.4 166.9 242.5 174.4 221.4Z" fill="#030047"/>
<path d="M64.2003 191.7C96.1003 197.8 88.6003 240.2 109.2 257.9C109.2 260 109.2 262.1 109.3 264.2C97.9003 256.5 93.3003 243.7 89.4003 231.1C85.1003 217.1 79.4003 199.7 62.9003 196.5C59.7003 195.9 61.0003 191.1 64.2003 191.7Z" fill="#030047"/>
<path d="M52.4001 259.7C58.8001 230.3 60.0001 199.6 61.2001 169.6C61.2001 169.5 61.2001 169.4 61.2001 169.3C62.0001 170.4 63.3001 171.1 65.0001 171.1C65.4001 171.1 65.7001 171.1 66.1001 171C64.9001 201.1 63.5001 231.8 57.0001 261.2C55.5001 260.7 53.9001 260.1 52.4001 259.7Z" fill="#030047"/>
<path d="M36.3002 157.9C36.8002 159.8 37.2003 161.6 37.7003 163.5C37.9003 164.1 36.9003 164.4 36.7003 163.8C36.2003 161.9 35.8002 160.1 35.3002 158.2C35.2002 157.5 36.2002 157.3 36.3002 157.9Z" fill="#030047"/>
<path d="M185.3 206.9C194.3 206.9 199.3 217.4 186.6 219.1C178.3 220.3 173.3 217.6 173.3 217.6C173.3 217.6 165.8 217.3 162.3 217.1C152.8 216.3 185.3 206.9 185.3 206.9Z" fill="#030047"/>
<path d="M216.3 350.1C231 350.1 255.6 344.5 255.6 306.8C255.6 283 238 263.5 216.3 263.5C192.8 263.5 177 280.9 177 306.8C177 330.7 194.6 350.1 216.3 350.1ZM216.3 265.1C237.1 265.1 254.1 283.8 254.1 306.9C254.1 343.2 230.4 348.7 216.3 348.7C195.5 348.7 178.5 330 178.5 306.9C178.5 281.9 193.7 265.1 216.3 265.1Z" fill="#030047"/>
<path d="M205.3 306.9C205.3 313 210.2 317.9 216.3 317.9C222.4 317.9 227.3 314.9 227.3 306.9C227.3 300.8 222.4 295.9 216.3 295.9C210.2 295.9 205.3 299.9 205.3 306.9Z" fill="#030047"/>
<path d="M177 279.6C177.2 279.6 177.5 279.5 177.6 279.3C185.2 267.2 198.7 259.2 212.8 258.5C227.1 257.7 241.5 264.5 250.4 276.1C250.7 276.4 251.1 276.5 251.5 276.2C251.8 275.9 251.9 275.5 251.6 275.1C242.4 263.1 227.5 256.1 212.7 256.9C198.2 257.7 184.2 265.9 176.3 278.4C176.1 278.8 176.2 279.2 176.5 279.4C176.7 279.5 176.8 279.6 177 279.6Z" fill="#030047"/>
<path d="M217.9 332.6C219.1 332.6 220.4 332.5 221.7 332.3C232.1 330.5 239.7 321.3 239.9 310.6C239.9 310.2 239.6 309.8 239.2 309.8C238.8 309.8 238.5 310.1 238.4 310.5C238.3 320.5 231.1 329 221.5 330.7C212.4 332.3 203.2 327.5 199.2 318.9C199 318.5 198.6 318.4 198.2 318.5C197.8 318.7 197.7 319.1 197.8 319.5C201.4 327.6 209.4 332.6 217.9 332.6Z" fill="#030047"/>
<path d="M231.2 313.2C231.5 313.2 231.7 313.1 231.9 312.8C234.8 307.2 234 300.8 229.9 296C229.6 295.7 229.2 295.7 228.8 295.9C228.5 296.2 228.5 296.6 228.7 297C232.5 301.3 233.1 307 230.5 312.1C230.3 312.5 230.5 312.9 230.8 313.1C231 313.2 231.1 313.2 231.2 313.2Z" fill="#030047"/>
<path d="M39.3 350.1C54 350.1 78.5 344.5 78.5 306.8C78.5 283 60.9 263.5 39.3 263.5C15.8 263.5 0 280.9 0 306.8C0 330.7 17.6 350.1 39.3 350.1ZM39.3 265.1C60.1 265.1 77 283.8 77 306.9C77 343.2 53.3 348.7 39.3 348.7C18.5 348.7 1.5 330 1.5 306.9C1.5 281.9 16.7 265.1 39.3 265.1Z" fill="#030047"/>
<path d="M28.3 306.9C28.3 313 33.2 317.9 39.3 317.9C45.4 317.9 50.3 314.9 50.3 306.9C50.3 300.8 45.4 295.9 39.3 295.9C33.2 295.9 28.3 299.9 28.3 306.9Z" fill="#030047"/>
<path d="M34.4001 321C34.7001 321 35.0001 320.8 35.1001 320.5C35.2001 320.1 35.0001 319.7 34.6001 319.5C28.6001 317.4 24.6 311.3 25.3 305.2C26 299.1 31.3001 294.1 37.6001 293.5C38.0001 293.5 38.3 293.1 38.3 292.7C38.3 292.3 37.9001 292 37.5001 292C30.5001 292.7 24.6 298.3 23.8 305.1C23 311.9 27.4001 318.7 34.1001 321C34.2001 321 34.3001 321 34.4001 321Z" fill="#030047"/>
<path d="M52.4 303.6C52.9 303.6 53.2 303.2 53.1 302.8C52.8 299.2 50.6 296 47.3 294.6C46.9 294.4 46.5 294.6 46.3 295C46.1 295.4 46.3 295.8 46.7 296C49.5 297.2 51.4 299.9 51.6 302.9C51.6 303.3 52 303.6 52.4 303.6Z" fill="#030047"/>
<path d="M61.1999 331.4C61.3999 331.4 61.5999 331.3 61.7999 331.2C68.9999 323.2 71.4999 311.8 68.4999 301.4C68.3999 301 67.9999 300.8 67.5999 300.9C67.1999 301 66.9999 301.4 67.0999 301.8C69.9999 311.7 67.4999 322.5 60.6999 330.1C60.3999 330.4 60.3999 330.9 60.7999 331.2C60.7999 331.3 60.9999 331.4 61.1999 331.4Z" fill="#030047"/>
<path d="M150.8 316.2C156.4 316.2 160.3 313.7 161.8 309.2L162.1 308.2H161C156 308.3 148.3 308.1 140.4 307.4L139.2 307.3L139.6 308.4C141.4 313.1 145.8 316.2 150.8 316.2ZM160 309.8C158.1 313.9 154 314.7 150.8 314.7C146.9 314.7 143.3 312.5 141.6 309C148.6 309.7 155.3 309.8 160 309.8Z" fill="#030047"/>
<path d="M136.8 322.1C147.1 322.1 155.6 313.7 155.6 303.3C155.6 296.7 152.2 290.7 146.6 287.3C145.1 286.4 143.5 285.7 141.8 285.2C140.2 284.8 138.5 284.5 136.9 284.5C125.7 284.5 117.6 293 117.6 304.8C117.5 314.7 125.8 322.1 136.8 322.1ZM136.8 286.1C138.3 286.1 139.9 286.3 141.3 286.7C142.9 287.1 144.3 287.8 145.7 288.6C150.9 291.8 154 297.3 154 303.3C154 312.8 146.3 320.6 136.7 320.6C126.6 320.6 118.9 313.8 118.9 304.8C119 292.6 128 286.1 136.8 286.1Z" fill="#030047"/>
<path d="M118.7 287C120.4 290.9 124.3 293.5 128.8 293.5C133.2 293.5 137.1 291.9 138.8 287.9C132.7 287.9 125.4 287.7 118.7 287Z" fill="white"/>
<path d="M128.8 294.3C134.1 294.3 137.8 292.2 139.5 288.2L140 287.2H138.9C131.2 287.1 124.5 286.8 118.9 286.3L117.6 286.2L118.1 287.4C119.9 291.6 124.1 294.3 128.8 294.3ZM137.6 288.7C135.6 292.1 131.8 292.8 128.8 292.8C125.2 292.8 121.9 290.9 120 287.9C125 288.4 130.9 288.6 137.6 288.7Z" fill="#030047"/>
<path d="M101.3 218.9C106.3 233.9 121.3 268.9 121.3 268.9C121.3 268.9 120.3 277.9 113.3 278.9C106.3 279.9 106.3 284.9 106.3 284.9C119.3 288.9 151.3 287.9 151.3 287.9C149.3 254.9 133.3 220.9 133.3 220.9C133.3 220.9 157.3 219.9 178.3 212.9C197.9 206.4 195.7 192.9 188.9 172.5C173.9 184.9 146.8 182.1 139.9 181.1C132.7 183.2 125.9 185.2 120.3 186.9C97.3003 193.9 96.3003 203.9 101.3 218.9Z" fill="white"/>
<path d="M142.3 288.8C147.3 288.8 150.9 288.7 151.3 288.7H152.1V287.9C150.3 258.3 137.1 227.5 134.5 221.6C139.5 221.3 160.3 219.7 178.6 213.6C185.8 211.2 190.4 207.8 192.7 203.1C196.4 195.8 194.3 186.2 189.6 172.2L189.3 171.2L188.5 171.9C174 183.9 147.8 181.4 140.1 180.4H139.9H139.8C132.4 182.5 125.6 184.5 120.2 186.2C109.2 189.5 102.8 193.7 100 199.2C96.8002 205.3 98.6002 212.7 100.8 219.2C105.6 233.5 119.5 266.2 120.7 269.1C120.5 270.3 119.2 277.4 113.4 278.3C105.8 279.4 105.8 285 105.8 285V285.6L106.3 285.8C114.8 288.3 131.8 288.8 142.3 288.8ZM150.5 287.2C145.6 287.3 119 287.8 107.1 284.4C107.3 283.2 108.4 280.4 113.4 279.7C120.9 278.6 122 269.4 122 269V268.8L121.9 268.6C121.8 268.3 106.9 233.5 101.9 218.7C99.0002 210 98.7002 204.4 101.1 199.9C103.7 194.8 109.9 190.9 120.4 187.7C125.8 186.1 132.5 184.1 139.9 182C147.6 183.1 173.3 185.5 188.4 173.9C192.6 186.7 194.5 195.9 191.2 202.6C189.1 206.9 184.7 210.1 178 212.3C157.3 219.2 133.4 220.3 133.2 220.3H132.1L132.6 221.3C132.8 221.6 148.3 254.9 150.5 287.2Z" fill="#030047"/>
<path d="M111.2 190.3C115.1 195 119.6 200.6 124.2 206.3C124.4 206.6 124.6 206.9 124.9 207.1C125 207.3 125.2 207.4 125.3 207.6C125.4 207.7 125.5 207.9 125.6 208C130.4 214 135.1 219.9 139.3 224.8C146.7 224.2 162.2 218.2 178.3 212.8C197.9 206.3 195.7 192.8 188.9 172.4C185.7 175.1 181.9 177 177.8 178.5C177.3 178.7 176.8 178.8 176.3 179C161.9 183.6 145 181.8 139.8 181.1C132.6 183.1 125.8 185.2 120.2 186.9C116.8 188 113.8 189.1 111.2 190.3Z" fill="#030047"/>
<path d="M106.3 284.9C109.5 285.9 113.9 286.6 118.7 287.1C125.3 287.8 132.7 288 138.8 288C146 288.1 151.3 287.9 151.3 287.9C151 282.3 150.2 276.6 149.2 271.1C139.9 270.6 130.7 270.1 121.5 269.2C120.4 272.8 117.9 278.3 113.3 278.9C106.3 279.9 106.3 284.9 106.3 284.9Z" fill="#030047"/>
<path d="M120.2 272.5C121.9 273.5 123.2 275 124.2 276.8C124.5 277.4 123.6 277.9 123.3 277.3C122.4 275.7 121.2 274.4 119.7 273.4L120.2 272.5Z" fill="white"/>
<path d="M118.3 275.7C119.3 276.4 120.1 277.3 120.6 278.6C120.8 279.2 119.9 279.5 119.6 278.9C119.2 277.9 118.5 277.1 117.6 276.5L118.3 275.7Z" fill="white"/>
<path d="M104.4 212.6C105.4 212.2 106.2 211.5 106.6 210.5C106.9 209.9 107.7 210.4 107.5 211C107 212.2 106 213.1 104.7 213.6C104.1 213.8 103.8 212.8 104.4 212.6Z" fill="#030047"/>
<path d="M140.3 226.6C140.4 226.6 140.5 226.6 140.5 226.6C142.1 226 180.7 212.9 188 208.8C188.4 208.6 188.5 208.1 188.3 207.8C188.1 207.4 187.6 207.3 187.3 207.5C180.2 211.5 140.5 225 140.1 225.2C139.7 225.3 139.5 225.8 139.6 226.2C139.7 226.4 140 226.6 140.3 226.6Z" fill="white"/>
<path d="M124.2 206.3C124.4 206.6 124.6 206.9 124.9 207.1C125 207.3 125.2 207.4 125.3 207.6C132.6 206.5 150 203.7 163.6 198.8C179.6 193 179.2 186.2 177.8 178.4C177.7 178 177.7 177.6 177.6 177.2C177.5 176.5 177.3 175.8 177.2 175.1C177.1 174.7 176.7 174.4 176.3 174.5C175.9 174.6 175.6 175 175.7 175.4C175.8 176.1 175.9 176.8 176.1 177.5C176.2 178 176.3 178.4 176.3 178.9C177.6 186.2 177.7 192.1 163 197.4C149.1 202.6 130.8 205.4 124.2 206.3Z" fill="white"/>
<path d="M62.4002 154.5H156.3C160.3 154.5 163 150.6 161.8 146.9L114.2 4C113.4 1.6 111.2 0 108.7 0H14.8002C10.8002 0 8.10019 3.9 9.30019 7.6L56.9002 150.5C57.7002 152.9 59.9002 154.5 62.4002 154.5Z" fill="#030047"/>
<path d="M65.2003 145.2H147.9C151.4 145.2 153.8 141.8 152.7 138.5L110.7 12.6C110 10.5 108.1 9.10001 105.9 9.10001H23.2003C19.7003 9.10001 17.3003 12.5 18.4003 15.8L60.3003 141.7C61.1003 143.8 63.0003 145.2 65.2003 145.2Z" fill="#FAAD13"/>
<path d="M133.8 93.4C134.8 90.9 136.5 88.8 138.4 87.2C139.2 86.6 140 86 140.9 85.6C141.1 85.5 141.2 85.4 141.4 85.3C141.4 85.3 141.5 85.3 141.5 85.2C142 85 142.5 84.8 143 84.6C143.4 84.5 143.7 84.4 144.1 84.3C144.5 84.2 144.8 84.1 145.2 84.1C145.4 84.1 145.6 84.1 145.7 84C145.8 84 145.8 84 145.9 84C146.3 84 146.6 84 147 84C147.2 84 147.3 84 147.5 84C147.8 84 148.1 84 148.4 84.1C148.5 84.1 148.6 84.1 148.7 84.1C148.9 84.1 149.1 84.2 149.2 84.2C150 84.3 150.7 84.6 151.4 84.9C151.7 85 152 85.2 152.2 85.3C152.3 85.3 152.3 85.3 152.3 85.4C152.5 85.5 152.7 85.6 152.8 85.7C153.3 86 153.8 86.4 154.3 86.8C154.4 86.9 154.6 87 154.7 87.1C154.9 87.3 155.1 87.5 155.3 87.7C155.4 87.8 155.5 87.9 155.6 88C159 91.8 160 97.8 157.7 103.3C157.7 103.3 157.7 103.3 157.7 103.4C162.9 105.9 162.7 111.1 159.1 112.8C156.4 114.1 152.4 114 149.9 111.2C147.9 112.1 145.7 112.5 143.5 112.3C142.8 112.3 142.1 112.2 141.3 112C140.9 111.9 140.4 111.8 140 111.7C130.6 108.7 130.8 100.8 133.8 93.4Z" fill="white"/>
<path d="M155.7 114.5C157.1 114.5 158.5 114.2 159.6 113.6C161.5 112.7 162.6 111 162.6 108.9C162.6 106.6 161.2 104.5 158.8 103.1C160.9 97.6 159.9 91.6 156.4 87.6L156.2 87.3L156.1 87.2C155.9 87 155.7 86.8 155.4 86.5C155.3 86.4 155.1 86.3 155 86.2C154.5 85.8 154 85.4 153.4 85.1C153.2 85 153 84.9 152.8 84.8C152.8 84.8 152.7 84.7 152.6 84.7C152.4 84.6 152.1 84.4 151.8 84.3C151.1 84 150.4 83.8 149.6 83.6L149.5 83.5L148.7 83.4C148.6 83.4 148.6 83.4 148.5 83.4C148.1 83.4 147.8 83.3 147.5 83.3H147.4C147.3 83.3 147.1 83.3 147 83.3C146.6 83.3 146.2 83.3 145.9 83.3C145.8 83.3 145.7 83.3 145.7 83.3C145.5 83.3 145.3 83.3 145.1 83.4C144.7 83.4 144.4 83.5 144 83.6C143.6 83.7 143.2 83.8 142.8 83.9C142.2 84.1 141.7 84.3 141.2 84.5L140.9 84.6C140.8 84.7 140.6 84.7 140.5 84.8C139.6 85.3 138.7 85.8 137.9 86.5C135.8 88.2 134.2 90.4 133.1 92.9C130.9 98.2 130.6 102.7 132.1 106.1C133.4 109 136.1 111.1 139.9 112.3C140.4 112.4 140.8 112.6 141.2 112.7C142 112.9 142.7 113 143.5 113C145.6 113.1 147.8 112.8 149.7 112C151.6 113.8 153.7 114.5 155.7 114.5ZM155.4 88.9C158.5 92.6 159.2 98.2 157.1 103.2L156.8 103.9L157.4 104.3C159.7 105.4 161 107.2 161 109C161 110.4 160.2 111.7 158.8 112.3C156.4 113.4 152.8 113.5 150.5 110.8L150.1 110.4L149.6 110.6C147.7 111.4 145.6 111.8 143.6 111.7C142.9 111.7 142.2 111.6 141.6 111.4C141.2 111.3 140.8 111.2 140.4 111.1C136.9 110 134.6 108.2 133.5 105.7C132.1 102.7 132.4 98.6 134.5 93.7C135.5 91.4 137 89.4 138.9 87.8C139.6 87.2 140.4 86.7 141.2 86.3C141.3 86.2 141.4 86.2 141.5 86.1L141.6 86C141.7 86 141.7 85.9 141.8 85.9C142.2 85.7 142.7 85.5 143.2 85.4C143.5 85.3 143.9 85.2 144.2 85.1C144.5 85 144.9 85 145.2 84.9C145.4 84.9 145.5 84.9 145.7 84.8H145.9C146.2 84.8 146.6 84.8 146.9 84.8C147 84.8 147.1 84.8 147.2 84.8H147.3C147.6 84.8 147.8 84.8 148.1 84.9L148.9 85C149.6 85.1 150.3 85.4 151 85.6C151.3 85.7 151.5 85.8 151.8 86L152.3 85.4L151.9 86C152.1 86.1 152.3 86.2 152.4 86.3C152.9 86.6 153.3 86.9 153.8 87.3C153.9 87.4 154.1 87.5 154.2 87.6C154.4 87.8 154.6 88 154.8 88.2C154.9 88.3 155 88.4 155.1 88.5L155.4 88.9Z" fill="#030047"/>
<path d="M142.6 88.8C141 88.5 139.6 87.9 138.4 87.2C142.1 84.2 147 83.2 151.4 85C153.1 85.7 154.5 86.8 155.7 88.1C151.5 89.2 147 89.7 142.6 88.8Z" fill="#030047"/>
<path d="M143.3 98.4C142.748 98.4 142.3 97.9523 142.3 97.4C142.3 96.8477 142.748 96.4 143.3 96.4C143.852 96.4 144.3 96.8477 144.3 97.4C144.3 97.9523 143.852 98.4 143.3 98.4Z" fill="#030047"/>
<path d="M157.5 104.2C152.5 101.4 148.2 96.5 146.3 91C145.6 88.8 145.3 86.5 145.4 84.2C147.4 84 149.5 84.2 151.4 85C158 87.8 160.9 96 157.8 103.4C157.7 103.7 157.6 104 157.5 104.2Z" fill="#030047"/>
<path d="M152.7 106.9C154.8 105.8 157.4 106.3 158.9 108.2C159.3 108.7 158.6 109.4 158.2 108.9C157 107.4 154.9 106.9 153.2 107.8C152.6 108 152.1 107.2 152.7 106.9Z" fill="#030047"/>
<path d="M135 98.5C136.1 96.6 137.5 94.8 139.2 93.3C139.7 92.9 140.4 93.6 139.9 94C138.3 95.5 137 97.1 135.9 99C135.5 99.6 134.7 99.1 135 98.5Z" fill="#030047"/>
<path d="M141.5 112.1C142.2 112.2 142.9 112.4 143.7 112.4C145.5 111.6 147.3 110.6 148.8 109.4C151.1 107.6 153.1 105.3 154.5 102.6V102.5C154.5 102.4 154.5 102.4 154.6 102.3C154.7 101.9 154.2 101.6 153.9 101.7C153.8 101.7 153.8 101.8 153.7 101.9C153.5 102.2 153.4 102.5 153.2 102.9C151.9 105 150.3 106.9 148.4 108.4C146.4 110.1 144 111.4 141.5 112.1Z" fill="#030047"/>
<path d="M161.3 84.1C172.5 92.6 172.2 102.3 161.8 112.4L156.8 108.8C153.7 106.6 152.2 102.7 153.2 99C153.9 96.1 153.4 92.5 148.7 89.2C139 82.5 137.9 83.5 138.4 82.8C140.6 80.1 147.5 73.7 161.3 84.1Z" fill="#030047"/>
<path d="M146 111.1C146.5 111.8 147.4 111.9 148.1 111.4L148.8 110.9C149.5 110.4 149.6 109.5 149.1 108.8C148.6 108.1 147.7 108 147 108.5L146.3 109C145.7 109.5 145.5 110.5 146 111.1Z" fill="#030047"/>
<path d="M160.6 97.2C162 98.2 163.5 99.2 164.9 100.2C165.4 100.6 164.9 101.4 164.4 101.1C163 100.1 161.5 99.1 160.1 98.1C159.6 97.7 160.1 96.8 160.6 97.2Z" fill="white"/>
<path d="M159.4 99.8C160.8 100.8 162.3 101.8 163.7 102.8C164.2 103.2 163.7 104 163.2 103.7C161.8 102.7 160.3 101.7 158.9 100.7C158.4 100.3 158.9 99.4 159.4 99.8Z" fill="white"/>
<path d="M15.3002 58.2H21.0002C23.6002 58.2 23.6002 62.2 21.0002 62.2H15.2002C12.7002 62.2 12.7002 58.2 15.3002 58.2Z" fill="white"/>
<path d="M15.3002 63H21.0002C22.8002 63 23.7002 61.6 23.7002 60.3C23.7002 58.9 22.8002 57.5 21.0002 57.5H15.2002C13.4002 57.5 12.5002 58.9 12.5002 60.2C12.6002 61.6 13.5002 63 15.3002 63ZM21.0002 59C22.1002 59 22.2002 60.1 22.2002 60.3C22.2002 60.4 22.2002 61.5 21.0002 61.5H15.2002C14.1002 61.5 14.0002 60.4 14.0002 60.2C14.0002 60.1 14.0002 59 15.2002 59H21.0002Z" fill="#030047"/>
<path d="M27.4001 58.2C30.0001 58.2 30.0001 62.2 27.4001 62.2C24.8001 62.2 24.8001 58.2 27.4001 58.2Z" fill="white"/>
<path d="M27.4001 63C29.2001 63 30.1001 61.6 30.1001 60.3C30.1001 59.6 29.9001 58.9 29.4001 58.4C28.9001 57.8 28.2001 57.5 27.4001 57.5C25.6001 57.5 24.7001 58.9 24.7001 60.2C24.7001 60.9 24.9001 61.6 25.4001 62.1C25.8001 62.7 26.6001 63 27.4001 63ZM27.4001 59C28.5001 59 28.6001 60.1 28.6001 60.3C28.6001 60.4 28.6001 61.5 27.4001 61.5C26.2001 61.5 26.2001 60.4 26.2001 60.2C26.2001 60.1 26.2001 59 27.4001 59Z" fill="#030047"/>
<path d="M6.50006 58.2H9.30005C10.3 58.2 11.3 59.1 11.3 60.2C11.3 61.3 10.4 62.2 9.30005 62.2H6.50006C5.50006 62.2 4.50006 61.3 4.50006 60.2C4.60006 59.2 5.40006 58.2 6.50006 58.2Z" fill="white"/>
<path d="M6.5 63H9.29999C10.8 63 12 61.8 12 60.3C12 59.6 11.8 58.9 11.3 58.4C10.8 57.8 9.99999 57.5 9.29999 57.5H6.5C5 57.5 3.79999 58.7 3.79999 60.2C3.79999 60.9 4 61.6 4.5 62.1C5.1 62.7 5.8 63 6.5 63ZM9.29999 59C9.59999 59 10 59.2 10.2 59.4C10.4 59.6 10.5 59.9 10.5 60.2C10.5 60.9 9.90001 61.5 9.20001 61.5H6.39999C6.09999 61.5 5.7 61.3 5.5 61.1C5.3 60.9 5.20001 60.6 5.20001 60.3C5.20001 59.6 5.8 59 6.5 59H9.29999Z" fill="#030047"/>
<path d="M103.1 34.4C108.7 34.4 108.7 43.2 103.1 43.2C97.5003 43.2 97.5003 34.4 103.1 34.4Z" fill="white"/>
<path d="M37.5002 46.3H89.2002C92.8002 46.3 95.7002 43.4 95.7002 39.8V37.8C95.7002 34.2 92.8002 31.3 89.2002 31.3H37.5002C33.9002 31.3 31.0002 34.2 31.0002 37.8V39.8C31.0002 43.4 33.9002 46.3 37.5002 46.3Z" fill="white"/>
<path d="M37.1003 39.1H88.8003C89.2003 39.1 89.6003 38.8 89.6003 38.3C89.6003 37.8 89.3003 37.5 88.8003 37.5H37.1003C36.7003 37.5 36.3003 37.8 36.3003 38.3C36.3003 38.8 36.7003 39.1 37.1003 39.1Z" fill="#030047"/>
<path d="M100.9 13.1H105.7V17.9H100.9V13.1Z" fill="#030047"/>
<path d="M93.3001 16.9C94.5001 15.7 95.7001 14.5 96.9001 13.3C97.4001 12.8 98.2001 13.6 97.7001 14.1L94.1001 17.7C93.6001 18.2 92.8001 17.4 93.3001 16.9Z" fill="#030047"/>
<path d="M96.9001 17.7C95.7001 16.5 94.5001 15.3 93.3001 14.1C92.8001 13.6 93.6001 12.8 94.1001 13.3L97.7001 16.9C98.3001 17.4 97.5001 18.2 96.9001 17.7Z" fill="#030047"/>
<path d="M148.1 119.1C133.6 123.5 118.9 118.5 109.2 105.9C99.5003 93.2 89.7003 77.7 86.8003 71.8C85.4003 69.1 83.7003 69.6 83.1003 71.1C82.5003 72.8 83.2003 75.9 85.8003 80.6C85.6003 80.5 83.8003 79.4 82.7003 80.4L81.8003 80.7C80.7003 80.3 78.1003 79.7 78.1003 83.5C78.1003 86.4 78.1003 88.7 78.7003 90C79.1003 90.8 79.7003 91.3 80.8003 91.3C80.9003 91.3 80.9003 91.3 80.9003 91.3C80.9003 91.3 77.0003 98.1 82.8003 102C88.6003 105.9 92.1003 131.5 115.9 139C134.4 144.8 145.6 140.1 145.6 140.1" fill="white"/>
<path d="M133.7 142.6C141.3 142.6 145.7 140.8 146 140.7L145.4 139.3C145.3 139.3 134.2 143.9 116.2 138.2C100 133.1 93.3003 119.3 88.9003 110.2C86.9003 106 85.2003 102.6 83.3003 101.3C78.1003 97.8 81.5003 91.8 81.6003 91.6L82.2003 90.5H80.8003C80.0003 90.5 79.6003 90.2 79.3003 89.6C78.7003 88.4 78.7003 86.2 78.7003 83.5C78.7003 82.7 78.8003 81.7 79.4003 81.3C80.0003 80.9 81.0003 81.2 81.4003 81.4L81.7003 81.5L83.1003 81L83.2003 80.9C83.9003 80.2 85.4003 81.1 85.4003 81.2L87.9003 82.7L86.5003 80.2C83.4003 74.6 83.5003 72.3 83.8003 71.4C84.0003 70.9 84.3003 70.7 84.6003 70.6C85.0003 70.6 85.6003 71 86.1003 72.1C89.0003 77.9 98.7003 93.4 108.6 106.3C118.6 119.3 133.4 124.3 148.3 119.8L147.9 118.4C133.6 122.7 119.4 117.9 109.8 105.4C100 92.6 90.4003 77.2 87.5003 71.4C86.4003 69.3 85.2003 69 84.5003 69C83.6003 69 82.8003 69.7 82.4003 70.7C81.7003 72.5 82.4003 75.3 84.3003 79.1C83.6003 79 82.9003 79.1 82.3003 79.6L81.7003 79.8C80.5003 79.4 79.4003 79.4 78.6003 80C77.7003 80.6 77.3003 81.7 77.3003 83.4C77.3003 86.5 77.3003 88.7 78.0003 90.2C78.4003 91 79.0003 91.6 79.8003 91.8C78.9003 94 77.5003 99.2 82.4003 102.5C84.0003 103.6 85.6003 106.8 87.5003 110.8C92.0003 120.2 98.9003 134.3 115.7 139.6C122.9 141.9 129 142.6 133.7 142.6Z" fill="#030047"/>
<path d="M145.7 140C145.7 140 139.4 142.7 128.5 141.6C127.6 134.3 128.2 127.1 129.7 119.7C135.6 121.1 141.9 121 148.1 119.1" fill="white"/>
<path d="M133.7 142.6C141.4 142.6 145.8 140.8 146 140.7L145.4 139.3C145.3 139.3 139.4 141.8 129.2 140.9C128.5 134.6 128.9 128.1 130.3 120.6C136.2 121.9 142.3 121.6 148.3 119.8L147.9 118.4C141.9 120.2 135.8 120.4 129.9 119L129.1 118.8L128.9 119.6C127.3 127.7 126.9 135 127.7 141.8L127.8 142.4L128.4 142.5C130.4 142.5 132.1 142.6 133.7 142.6Z" fill="#030047"/>
<path d="M87.6003 81.8C88.7003 79.1 92.4003 82.6 93.4003 83.7C93.9003 84.2 93.1003 84.9 92.7003 84.4C92.1003 83.8 88.6003 80.3 88.7003 83C88.7003 83.4 89.4003 84.6 89.7003 85C90.4003 86.1 91.2003 86.9 92.2003 87.7C92.4003 87.9 92.6003 88.3 92.3003 88.5C89.2003 91.1 93.0003 96.4 95.4003 98C95.9003 98.4 95.4003 99.2 94.9003 98.9C92.1003 97 88.3003 91.4 91.2003 88.3C89.5003 86.8 86.7003 83.9 87.6003 81.8Z" fill="#030047"/>
<path d="M81.8004 80.7C81.8004 82.9 81.6004 85.2 81.9004 87.3C81.9004 87.5 82.0004 87.7 82.0004 87.9C82.0004 88 82.0004 88.1 82.0004 88.2C82.3004 88.9 82.1004 89.8 81.3004 90.1C80.5004 90.5 79.7004 90.2 78.9004 89.9C78.8004 89.9 78.7004 89.9 78.6004 89.9C79.0004 90.7 79.6004 91.2 80.7004 91.2C81.2004 91.2 81.7004 91 82.2004 90.6C82.6004 90.3 82.8004 89.9 82.9004 89.5C83.1004 89.7 83.3004 89.8 83.6004 89.9C86.1004 91 88.2004 88.6 87.5004 86.2C87.3004 85.6 86.3004 85.9 86.5004 86.5C86.9004 87.9 85.9004 89.6 84.3004 89.2C82.8004 88.8 82.8004 87.3 82.7004 86.1C82.6004 84.3 82.7004 82.4 82.7004 80.6C82.7004 80.5 82.7004 80.4 82.6004 80.3L81.8004 80.7Z" fill="#030047"/>
<path d="M133.3 120.6C132 126.6 130.8 136.3 132.1 141.8Z" fill="white"/>
<path d="M131.4 142L132.9 141.6C131.7 136.5 132.6 127.2 134.1 120.7L132.6 120.4C131.1 127.1 130.1 136.7 131.4 142Z" fill="#030047"/>
<path d="M138.3 180.9C138.3 180.9 138.9 181 139.9 181.1C146.8 182 173.9 184.8 188.9 172.5C190.5 171.2 192 169.6 193.3 167.9C186.3 156.6 181.4 148.6 179.3 142.9C171.7 122.4 163.7 112.3 150.3 115.9C135.3 119.9 128.3 135.9 142.3 152.9C152.9 165.8 138.3 180.9 138.3 180.9Z" fill="white"/>
<path d="M154.2 182.8C165.4 182.8 179.8 181 189.4 173C191.1 171.6 192.7 170 193.9 168.3L194.2 167.9L193.9 167.5C186.8 156.1 182.1 148.3 180 142.6C173.8 125.9 165.8 110.9 150.1 115.1C142.5 117.1 137 122 134.9 128.6C132.5 136.2 134.9 145 141.7 153.3C151.8 165.6 137.9 180.2 137.7 180.3L136.7 181.3L138.1 181.5C138.1 181.5 138.7 181.6 139.7 181.7H139.8C142.7 182.3 147.9 182.8 154.2 182.8ZM192.4 167.9C191.2 169.4 189.9 170.7 188.4 172C173.9 184 147.7 181.5 140 180.5H139.9H139.8C142.9 176.8 152.2 163.9 142.9 152.6C136.4 144.7 134.1 136.4 136.3 129.3C138.3 123.2 143.4 118.7 150.5 116.8C162.4 113.6 170.3 121.1 178.6 143.3C180.7 148.8 185.4 156.6 192.4 167.9Z" fill="#030047"/>
<path d="M145.3 129.9C141.3 155.9 135.3 164.9 117.3 164.9C99.3002 164.9 90.3002 155.9 83.3002 161.9C76.8002 167.4 77.2001 173 81.2001 175.4C81.5001 175.6 81.9001 175.8 82.2001 175.9H82.3002C82.3002 176.6 82.4002 177.2 82.5002 177.8C82.5002 177.9 82.5002 178 82.6002 178C83.2002 180.3 85.0001 180.9 87.4001 180.9C87.4001 180.9 92.4001 185.9 94.4001 181.9C95.7001 179.2 92.4001 179.9 91.4001 177.9C90.4001 175.9 93.4001 175.9 93.4001 175.9C95.4001 178.9 95.4001 179.9 100.4 178.9C106.6 177.7 105.4 185.9 132.4 184.9C159.4 183.9 164.4 158.9 165.4 133.9" fill="white"/>
<path d="M128 185.7C129.4 185.7 130.8 185.7 132.4 185.6C160.3 184.6 165.1 158.9 166.1 133.9L164.6 133.8C163.6 158.1 159 183.1 132.3 184.1C115 184.7 109.4 181.5 106 179.6C104.1 178.5 102.6 177.6 100.2 178.1C96.2001 178.9 96.0001 178.5 94.5001 176.3C94.3001 176 94.1001 175.7 93.9001 175.4L93.7001 175.1H93.3001C93.0001 175.1 91.3001 175.2 90.6001 176.2C90.4001 176.6 90.2001 177.2 90.6001 178.2C91.1001 179.2 92.1001 179.7 92.9001 180.1C93.3001 180.3 93.8001 180.5 93.9001 180.7C93.9001 180.8 94.0001 181 93.7001 181.5C93.4001 182.2 92.9001 182.5 92.4001 182.6C90.9001 182.8 88.6001 181 87.9001 180.3L87.7001 180.1H87.4001C85.0001 180.1 83.8001 179.4 83.4001 177.8L83.3001 177.6C83.2001 177.1 83.1001 176.6 83.1001 175.9V175.4L82.5001 175.2C82.2001 175.1 81.9001 174.9 81.6001 174.8C80.1001 173.9 79.2001 172.5 79.1001 170.9C78.9001 168.3 80.6001 165.3 83.8001 162.5C87.4001 159.4 91.5001 160.6 97.8001 162.4C102.9 163.9 109.2 165.7 117.3 165.7C135.1 165.7 141.8 157.4 146 130.1L144.5 129.9C140.4 156.6 134.3 164.3 117.2 164.3C109.3 164.3 103.1 162.5 98.1001 161.1C91.6001 159.2 86.9001 157.9 82.7001 161.5C79.1001 164.6 77.2001 168 77.5001 171.1C77.7001 173.2 78.8001 175 80.8001 176.1C81.0001 176.2 81.3001 176.4 81.5001 176.5C81.5001 177.1 81.6001 177.6 81.7001 178.1C81.7001 178.2 81.7001 178.3 81.8001 178.4C82.6001 181.3 85.1001 181.8 87.0001 181.8C87.8001 182.5 90.3001 184.7 92.6001 184.3C93.3001 184.2 94.3001 183.8 95.0001 182.4C95.4001 181.6 95.5001 181 95.3001 180.4C95.0001 179.6 94.2001 179.2 93.6001 178.9C93.0001 178.6 92.3001 178.3 92.1001 177.7C92.0001 177.5 91.9001 177.3 92.0001 177.2C92.1001 177 92.6001 176.9 93.0001 176.8C93.1001 177 93.2001 177.1 93.3001 177.3C95.0001 179.9 95.8001 180.7 100.5 179.8C102.4 179.4 103.5 180.1 105.3 181.1C108.4 182.8 113.6 185.7 128 185.7Z" fill="#030047"/>
<path d="M159.5 168.1L159.8 167.5C164.6 157 165.7 143.3 166 134L164.5 133.9C164.1 143 163.1 156.1 158.7 166.2C155.2 164.8 152.4 163.5 150 162.1C146 159.9 142.6 156.9 139.5 154C142.3 148.8 144.3 141.3 146.1 130L144.6 129.8C142.8 141.3 140.8 148.7 137.9 153.8L137.6 154.3L138 154.7C141.3 157.8 144.9 161 149.3 163.4C152 164.9 155 166.3 158.9 167.9L159.5 168.1Z" fill="#030047"/>
<path d="M93.3 179.9C91.6432 179.9 90.3 178.557 90.3 176.9C90.3 175.243 91.6432 173.9 93.3 173.9C94.9569 173.9 96.3 175.243 96.3 176.9C96.3 178.557 94.9569 179.9 93.3 179.9Z" fill="#030047"/>
<path d="M86.8002 180.9C85.5002 178 85.9002 174.7 87.7002 172.1C88.1002 171.6 88.9002 172.1 88.6002 172.6C86.6002 175.3 86.5002 178.8 88.3002 181.7C88.4002 181.8 88.4002 181.9 88.4002 181.9L86.8002 180.9Z" fill="#030047"/>
<path d="M83.0002 176.4C83.0002 175.1 83.6002 172 85.0002 170.2C85.4002 169.7 84.7002 169 84.3002 169.5C82.8002 171.4 82.0002 173.6 82.0002 175.9C82.3002 176.1 82.6002 176.2 83.0002 176.4Z" fill="#030047"/>
<path d="M160.6 163.6C153.4 161.5 140.4 151.1 140.4 151.1Z" fill="white"/>
<path d="M160.3 164.3L160.7 162.9C153.7 160.8 140.8 150.6 140.7 150.5L139.8 151.7C140.4 152.1 153.1 162.2 160.3 164.3Z" fill="#030047"/>
<path d="M79.0002 74.4H91.5002L84.5002 66.9H72.0002L79.0002 74.4Z" fill="#030047"/>
<path d="M38.7002 106.6H71.4001L59.5002 94.4H26.8001L38.7002 106.6Z" fill="white"/>
<path d="M38.4002 107.3H73.2002L59.8002 93.7H25.0002L38.4002 107.3ZM69.6002 105.8H39.0002L28.6002 95.2H59.2002L69.6002 105.8Z" fill="#030047"/>
<path d="M43.1003 65.3H60.0002L50.5002 55.6H33.5002L43.1003 65.3Z" fill="white"/>
<path d="M42.8003 66.1H61.8003L50.8003 54.9H31.8003L42.8003 66.1ZM58.2003 64.6H43.4003L35.3003 56.4H50.1003L58.2003 64.6Z" fill="#030047"/>
<path d="M49.5003 82.1H77.3003L70.1003 74.7H42.3003L49.5003 82.1Z" fill="#030047"/>
<path d="M38.8002 98.9H58.8002C59.4002 98.9 59.4002 99.9 58.8002 99.9H38.8002C38.1002 99.9 38.1002 98.9 38.8002 98.9Z" fill="#030047"/>
<path d="M79.5002 69.6H84.0002C84.6002 69.6 84.6002 70.6 84.0002 70.6H79.5002C78.9002 70.6 78.9002 69.6 79.5002 69.6Z" fill="white"/>
</svg>
