<svg width="486" height="246" viewBox="0 0 486 246" fill="none" xmlns="http://www.w3.org/2000/svg">
<path d="M105.21 85.5201C108.17 85.5201 110.57 84.8 112.37 83.32C114.21 81.84 115.13 79.8001 115.13 77.2801C115.33 74.6 113.73 72.68 112.25 71.5201C111.81 71.16 111.13 70.76 110.21 70.4C109.33 70.04 108.65 69.76 108.13 69.6C107.65 69.4 106.89 69.16 105.81 68.8C101.53 67.48 100.17 66.52 100.17 64.4401C100.17 62.32 101.89 60.96 104.57 60.96C107.33 60.96 109.29 62.28 110.45 64.88L114.33 62.64C112.53 58.8 109.05 56.48 104.57 56.48C102.09 56.48 99.9699 57.2 98.2099 58.68C96.4499 60.12 95.5699 62.08 95.5699 64.56C95.5699 67.08 96.4899 68.9201 98.2899 70.2001C100.17 71.44 101.49 71.96 104.17 72.76C106.53 73.48 108.21 74.16 109.13 74.76C110.05 75.36 110.53 76.2 110.53 77.36C110.53 79.56 108.81 81.0401 105.33 81.0401C101.81 81.0401 99.4899 79.48 98.3699 76.32L94.4099 78.64C95.8899 82.92 99.8099 85.5201 105.21 85.5201Z" fill="white"/>
<path d="M128.8 85.5201C131.76 85.5201 134.24 84.52 136.28 82.48C138.32 80.44 139.36 77.96 139.36 75C139.36 72.04 138.32 69.5601 136.28 67.5201C134.24 65.48 131.76 64.48 128.8 64.48C125.88 64.48 123.36 65.48 121.32 67.5201C119.28 69.5601 118.24 72.04 118.24 75C118.24 77.96 119.28 80.44 121.32 82.48C123.36 84.52 125.88 85.5201 128.8 85.5201ZM124.36 79.5201C123.16 78.3201 122.56 76.8 122.56 75C122.56 73.2 123.16 71.68 124.36 70.48C125.56 69.28 127.04 68.68 128.8 68.68C130.56 68.68 132.04 69.28 133.24 70.48C134.44 71.68 135.04 73.2 135.04 75C135.04 76.8 134.44 78.3201 133.24 79.5201C132.04 80.7201 130.56 81.32 128.8 81.32C127.04 81.32 125.56 80.7201 124.36 79.5201Z" fill="white"/>
<path d="M147.586 85V55.8H143.266V85H147.586Z" fill="white"/>
<path d="M160.602 80.2001L155.002 65H150.282L158.082 85H163.082L170.882 65H166.162L160.602 80.2001Z" fill="white"/>
<path d="M192.156 76.84C192.276 76.08 192.316 75.48 192.316 75.04C192.316 72.12 191.356 69.6 189.476 67.56C187.596 65.52 185.196 64.48 182.276 64.48C179.196 64.48 176.636 65.48 174.676 67.5201C172.716 69.52 171.716 72 171.716 75C171.716 78.04 172.716 80.5601 174.716 82.5601C176.716 84.5201 179.356 85.5201 182.596 85.5201C186.476 85.5201 189.396 84.08 191.356 81.16L187.796 79.0801C186.636 80.7201 184.916 81.5601 182.636 81.5601C179.316 81.5601 176.876 79.88 176.236 76.84H192.156ZM176.196 73.32C176.796 70.28 179.036 68.4 182.236 68.4C185.076 68.4 187.356 70.08 187.956 73.32H176.196Z" fill="white"/>
<path d="M206.398 57V85H210.998V75.4H216.718C219.358 75.4 221.558 74.52 223.318 72.76C225.118 70.96 225.998 68.8 225.998 66.2C225.998 63.6 225.118 61.4 223.318 59.64C221.558 57.88 219.358 57 216.718 57H206.398ZM210.998 71.08V61.32H216.718C219.438 61.32 221.398 63.36 221.398 66.2C221.398 69.04 219.438 71.08 216.718 71.08H210.998Z" fill="white"/>
<path d="M233.641 65H229.321V85H233.641V74.92C233.641 72.88 234.241 71.4 235.481 70.52C236.721 69.6 238.161 69.2 239.801 69.32V64.64C236.801 64.64 234.721 65.88 233.641 68.3601V65Z" fill="white"/>
<path d="M251.495 85.5201C254.455 85.5201 256.935 84.52 258.975 82.48C261.015 80.44 262.055 77.96 262.055 75C262.055 72.04 261.015 69.5601 258.975 67.5201C256.935 65.48 254.455 64.48 251.495 64.48C248.575 64.48 246.055 65.48 244.015 67.5201C241.975 69.5601 240.935 72.04 240.935 75C240.935 77.96 241.975 80.44 244.015 82.48C246.055 84.52 248.575 85.5201 251.495 85.5201ZM247.055 79.5201C245.855 78.3201 245.255 76.8 245.255 75C245.255 73.2 245.855 71.68 247.055 70.48C248.255 69.28 249.735 68.68 251.495 68.68C253.255 68.68 254.735 69.28 255.935 70.48C257.135 71.68 257.735 73.2 257.735 75C257.735 76.8 257.135 78.3201 255.935 79.5201C254.735 80.7201 253.255 81.32 251.495 81.32C249.735 81.32 248.255 80.7201 247.055 79.5201Z" fill="white"/>
<path d="M277.281 64.48C274.241 64.48 271.921 65.6 270.281 67.84V57H265.961V85H270.281V82.12C271.921 84.4 274.241 85.5201 277.281 85.5201C280.041 85.5201 282.361 84.52 284.321 82.48C286.281 80.44 287.241 77.92 287.241 75C287.241 72.04 286.281 69.5601 284.321 67.5201C282.361 65.48 280.041 64.48 277.281 64.48ZM272.081 79.6C270.881 78.36 270.281 76.84 270.281 75C270.281 73.16 270.881 71.64 272.081 70.44C273.281 69.2 274.801 68.6 276.601 68.6C278.401 68.6 279.921 69.2 281.121 70.44C282.321 71.64 282.921 73.16 282.921 75C282.921 76.84 282.321 78.36 281.121 79.6C279.921 80.8 278.401 81.4001 276.601 81.4001C274.801 81.4001 273.281 80.8 272.081 79.6Z" fill="white"/>
<path d="M295.477 85V55.8H291.157V85H295.477Z" fill="white"/>
<path d="M319.813 76.84C319.933 76.08 319.973 75.48 319.973 75.04C319.973 72.12 319.013 69.6 317.133 67.56C315.253 65.52 312.853 64.48 309.933 64.48C306.853 64.48 304.293 65.48 302.333 67.5201C300.373 69.52 299.373 72 299.373 75C299.373 78.04 300.373 80.5601 302.373 82.5601C304.373 84.5201 307.013 85.5201 310.253 85.5201C314.133 85.5201 317.053 84.08 319.013 81.16L315.453 79.0801C314.293 80.7201 312.573 81.5601 310.293 81.5601C306.973 81.5601 304.533 79.88 303.893 76.84H319.813ZM303.853 73.32C304.453 70.28 306.693 68.4 309.893 68.4C312.733 68.4 315.013 70.08 315.613 73.32H303.853Z" fill="white"/>
<path d="M345.614 64.48C342.854 64.48 340.814 65.52 339.494 67.64C338.254 65.52 336.374 64.48 333.814 64.48C331.294 64.48 329.374 65.44 328.094 67.4V65H323.774V85H328.094V73.8C328.094 70.32 329.934 68.52 332.534 68.52C334.934 68.52 336.294 70.12 336.294 72.88V85H340.614V73.8C340.614 70.28 342.294 68.52 344.974 68.52C347.374 68.52 348.854 70.12 348.854 72.88V85H353.174V72.6C353.174 67.64 350.134 64.48 345.614 64.48Z" fill="white"/>
<path d="M361.677 70.52C361.677 69.12 362.957 68.4 364.597 68.4C366.397 68.4 367.677 69.16 368.357 70.68L371.997 68.64C370.597 66.04 367.917 64.48 364.597 64.48C362.517 64.48 360.757 65.04 359.357 66.16C357.957 67.28 357.277 68.76 357.277 70.6C357.197 74.8 361.237 76.0001 364.237 76.76C366.357 77.2801 368.037 78.04 368.037 79.32C368.037 80.8 366.917 81.5601 364.637 81.5601C362.357 81.5601 360.877 80.6 360.197 78.68L356.477 80.84C357.757 83.76 360.677 85.5201 364.637 85.5201C366.877 85.5201 368.717 84.9601 370.197 83.8801C371.677 82.8001 372.437 81.2801 372.437 79.3601C372.517 75.08 368.517 73.8 365.437 73.12C363.357 72.52 361.677 71.84 361.677 70.52Z" fill="white"/>
<path d="M377.044 80.2001L375.444 90.6H379.044L381.844 80.2001H377.044Z" fill="white"/>
<path d="M174.939 120.48C172.099 120.48 170.059 121.52 168.739 123.56V121H164.419V141H168.739V130.28C168.739 126.4 170.779 124.52 173.819 124.52C176.579 124.52 178.299 126.16 178.299 129.16V141H182.619V128.72C182.619 123.6 179.539 120.48 174.939 120.48Z" fill="white"/>
<path d="M196.71 141.52C199.67 141.52 202.15 140.52 204.19 138.48C206.23 136.44 207.27 133.96 207.27 131C207.27 128.04 206.23 125.56 204.19 123.52C202.15 121.48 199.67 120.48 196.71 120.48C193.79 120.48 191.27 121.48 189.23 123.52C187.19 125.56 186.15 128.04 186.15 131C186.15 133.96 187.19 136.44 189.23 138.48C191.27 140.52 193.79 141.52 196.71 141.52ZM192.27 135.52C191.07 134.32 190.47 132.8 190.47 131C190.47 129.2 191.07 127.68 192.27 126.48C193.47 125.28 194.95 124.68 196.71 124.68C198.47 124.68 199.95 125.28 201.15 126.48C202.35 127.68 202.95 129.2 202.95 131C202.95 132.8 202.35 134.32 201.15 135.52C199.95 136.72 198.47 137.32 196.71 137.32C194.95 137.32 193.47 136.72 192.27 135.52Z" fill="white"/>
<path d="M221.946 121H216.986V115.4L212.666 116.68V121H208.986V125.16H212.666V134.76C212.666 140 215.346 141.8 221.946 141V137.12C218.666 137.28 216.986 137.32 216.986 134.76V125.16H221.946V121Z" fill="white"/>
<path d="M247.379 120.48C244.339 120.48 242.019 121.6 240.379 123.84V113H236.059V141H240.379V138.12C242.019 140.4 244.339 141.52 247.379 141.52C250.139 141.52 252.459 140.52 254.419 138.48C256.379 136.44 257.339 133.92 257.339 131C257.339 128.04 256.379 125.56 254.419 123.52C252.459 121.48 250.139 120.48 247.379 120.48ZM242.179 135.6C240.979 134.36 240.379 132.84 240.379 131C240.379 129.16 240.979 127.64 242.179 126.44C243.379 125.2 244.899 124.6 246.699 124.6C248.499 124.6 250.019 125.2 251.219 126.44C252.419 127.64 253.019 129.16 253.019 131C253.019 132.84 252.419 134.36 251.219 135.6C250.019 136.8 248.499 137.4 246.699 137.4C244.899 137.4 243.379 136.8 242.179 135.6Z" fill="white"/>
<path d="M274.734 131.72C274.734 135.6 272.694 137.48 269.654 137.48C266.894 137.48 265.174 135.84 265.174 132.84V121H260.854V133.28C260.854 138.4 263.934 141.52 268.534 141.52C271.374 141.52 273.414 140.48 274.734 138.44V141H279.054V121H274.734V131.72Z" fill="white"/>
<path d="M300.026 123.96C298.386 121.64 296.066 120.48 293.066 120.48C290.226 120.48 287.866 121.48 285.906 123.52C283.946 125.52 282.986 127.96 282.986 130.8C282.986 133.64 283.946 136.08 285.906 138.12C287.866 140.12 290.226 141.12 293.066 141.12C296.066 141.12 298.386 139.96 300.026 137.64V140.08C300.026 143.56 297.786 145.6 294.066 145.6C291.226 145.6 289.266 144.56 288.226 142.52L284.506 144.68C286.226 147.92 289.386 149.52 293.986 149.52C296.826 149.52 299.266 148.72 301.266 147.08C303.266 145.44 304.266 143.12 304.266 140.08V121H300.026V123.96ZM289.106 135.28C287.906 134.08 287.306 132.6 287.306 130.8C287.306 129 287.906 127.52 289.106 126.32C290.346 125.12 291.866 124.52 293.666 124.52C295.466 124.52 296.986 125.12 298.186 126.32C299.426 127.52 300.026 129 300.026 130.8C300.026 132.6 299.426 134.08 298.186 135.28C296.986 136.48 295.466 137.08 293.666 137.08C291.866 137.08 290.346 136.48 289.106 135.28Z" fill="white"/>
<path d="M313.064 126.52C313.064 125.12 314.344 124.4 315.984 124.4C317.784 124.4 319.064 125.16 319.744 126.68L323.384 124.64C321.984 122.04 319.304 120.48 315.984 120.48C313.904 120.48 312.144 121.04 310.744 122.16C309.344 123.28 308.664 124.76 308.664 126.6C308.584 130.8 312.624 132 315.624 132.76C317.744 133.28 319.424 134.04 319.424 135.32C319.424 136.8 318.304 137.56 316.024 137.56C313.744 137.56 312.264 136.6 311.584 134.68L307.864 136.84C309.144 139.76 312.064 141.52 316.024 141.52C318.264 141.52 320.104 140.96 321.584 139.88C323.064 138.8 323.824 137.28 323.824 135.36C323.904 131.08 319.904 129.8 316.824 129.12C314.744 128.52 313.064 127.84 313.064 126.52Z" fill="white"/>
<rect x="79" y="49" width="329" height="106" stroke="#2F80ED" stroke-width="2"/>
<rect x="401.5" y="43.5" width="11" height="11" fill="white" stroke="#2F80ED"/>
<rect x="72.5" y="43.5" width="11" height="11" fill="white" stroke="#2F80ED"/>
<rect x="401.5" y="144.5" width="11" height="11" fill="white" stroke="#2F80ED"/>
<rect x="72.5" y="146.5" width="11" height="11" fill="white" stroke="#2F80ED"/>
<rect x="1" y="1" width="484" height="202" stroke="white" stroke-width="2" stroke-linejoin="round" stroke-dasharray="10 10"/>
<g clip-path="url(#clip0)">
<path fill-rule="evenodd" clip-rule="evenodd" d="M409.832 162.685C411.348 162.279 412.862 161.863 414.369 161.459C417.34 172.548 420.309 183.627 423.28 194.716C421.764 195.122 420.245 195.519 418.728 195.925L418.753 195.94C418.669 195.703 418.585 195.467 418.52 195.226C415.683 184.639 412.849 174.062 410.012 163.476C409.94 163.205 409.899 162.937 409.846 162.661L409.832 162.685Z" fill="black"/>
<path fill-rule="evenodd" clip-rule="evenodd" d="M354.522 130.866C354.928 132.383 355.325 133.902 355.731 135.419L355.745 135.394C352.664 136.22 349.573 137.048 346.492 137.874L346.516 137.888C346.11 136.371 345.703 134.855 345.287 133.341C348.369 132.515 351.44 131.692 354.522 130.866Z" fill="black"/>
<path fill-rule="evenodd" clip-rule="evenodd" d="M417.719 210.938C417.79 211.126 417.881 211.309 417.933 211.502C419.167 216.11 420.404 220.727 421.639 225.334C421.678 225.479 421.697 225.629 421.742 225.835C405.717 230.128 389.702 234.42 373.6 238.734C373.525 238.454 373.45 238.174 373.372 237.884C372.195 233.489 371.02 229.104 369.842 224.709C369.764 224.419 369.648 224.14 369.561 223.853L369.556 223.874C371.102 223.46 372.657 223.044 374.26 222.614C375.203 226.13 376.111 229.52 377.027 232.94C389.642 229.56 402.19 226.198 414.834 222.81C413.912 219.371 413.001 215.971 412.067 212.484C414.028 211.958 415.892 211.459 417.766 210.957L417.719 210.938Z" fill="black"/>
<path fill-rule="evenodd" clip-rule="evenodd" d="M349.116 183.986C350.594 183.59 352.081 183.191 353.636 182.774C349.731 168.198 345.854 153.729 341.938 139.114C343.512 138.693 345.009 138.291 346.516 137.888L346.482 137.876C346.589 138.158 346.715 138.435 346.792 138.725C352.173 158.806 357.554 178.888 362.937 198.979C363.007 199.24 363.077 199.501 363.15 199.771C361.566 200.196 360.078 200.594 358.523 201.011C357.294 196.423 356.08 191.893 354.845 187.285C353.309 187.697 351.841 188.09 350.334 188.494C349.915 186.929 349.519 185.451 349.12 183.964L349.116 183.986Z" fill="black"/>
<path fill-rule="evenodd" clip-rule="evenodd" d="M341.157 195.819C339.67 196.217 338.192 196.613 336.656 197.025C335.437 192.475 334.22 187.935 332.994 183.357C337.939 182.032 342.856 180.714 347.879 179.369C348.298 180.933 348.707 182.459 349.116 183.986L349.13 183.961C345.682 184.885 342.233 185.809 338.756 186.741C338.924 187.369 339.059 187.871 339.196 188.383C339.851 190.868 340.5 193.365 341.146 195.853L341.157 195.819Z" fill="black"/>
<path fill-rule="evenodd" clip-rule="evenodd" d="M418.728 195.925C419.868 200.217 421.007 204.508 422.149 208.809C422.227 209.099 422.302 209.379 422.387 209.698C420.774 210.13 419.248 210.539 417.722 210.948L417.759 210.969C416.534 206.4 415.308 201.822 414.068 197.195C415.739 196.747 417.246 196.343 418.753 195.94L418.728 195.925Z" fill="black"/>
<path fill-rule="evenodd" clip-rule="evenodd" d="M355.574 207.971C353.681 208.479 351.787 208.986 349.865 209.501C349.8 209.374 349.748 209.294 349.722 209.198C348.86 205.981 348.001 202.774 347.139 199.558C347.113 199.461 347.116 199.357 347.11 199.255L347.095 199.28C348.979 198.775 350.863 198.27 352.804 197.75C353.728 201.198 354.639 204.598 355.55 207.998L355.574 207.971Z" fill="black"/>
<path fill-rule="evenodd" clip-rule="evenodd" d="M362.578 215.992C361.101 216.388 359.613 216.786 358.048 217.206C357.21 214.076 356.392 211.024 355.574 207.971L355.55 207.999C357.057 207.595 358.554 207.194 360.09 206.782C360.931 209.921 361.746 212.964 362.564 216.016L362.578 215.992Z" fill="black"/>
<path fill-rule="evenodd" clip-rule="evenodd" d="M369.551 223.855C368.073 224.251 366.586 224.65 365.011 225.071C364.196 222.029 363.386 219.005 362.578 215.992L362.564 216.016C364.09 215.607 365.607 215.201 367.181 214.779C367.787 217.039 368.387 219.239 368.97 221.454C369.185 222.255 369.351 223.07 369.544 223.867L369.551 223.855Z" fill="black"/>
<path fill-rule="evenodd" clip-rule="evenodd" d="M347.112 199.265C345.586 199.674 344.06 200.083 342.418 200.523C341.975 198.871 341.566 197.345 341.16 195.828L341.146 195.853C342.672 195.444 344.208 195.032 345.84 194.595C346.278 196.227 346.687 197.754 347.098 199.289L347.112 199.265Z" fill="black"/>
<path fill-rule="evenodd" clip-rule="evenodd" d="M355.722 135.421C357.228 135.017 358.735 134.614 360.31 134.192C362.062 140.731 363.786 147.164 365.535 153.694C369.013 152.762 372.403 151.854 375.88 150.922C376.315 152.545 376.727 154.08 377.136 155.607L377.157 155.57C373.728 156.489 370.299 157.407 366.773 158.352C368.52 164.872 370.246 171.315 371.975 177.767C370.411 178.187 368.933 178.583 367.416 178.989C363.513 164.423 359.626 149.915 355.738 135.406L355.722 135.421Z" fill="black"/>
<path fill-rule="evenodd" clip-rule="evenodd" d="M377.145 155.604C377.381 155.52 377.613 155.417 377.854 155.352C381.94 154.257 386.035 153.16 390.121 152.065C390.363 152 390.6 151.957 390.914 151.894C391.328 153.439 391.732 154.946 392.133 156.443L392.147 156.419C389.085 157.239 386.023 158.06 382.903 158.896C384.252 163.928 385.569 168.845 386.889 173.771C385.353 174.183 383.875 174.579 382.369 174.982C380.627 168.482 378.895 162.02 377.166 155.567L377.145 155.604Z" fill="black"/>
<path fill-rule="evenodd" clip-rule="evenodd" d="M392.133 156.443C395.533 155.532 398.933 154.621 402.391 153.695C402.805 155.24 403.207 156.737 403.605 158.225L403.619 158.2C401.726 158.708 399.843 159.212 397.882 159.738C399.241 164.809 400.558 169.726 401.875 174.642C400.33 175.056 398.862 175.45 397.364 175.851C395.617 169.331 393.886 162.869 392.154 156.407L392.133 156.443Z" fill="black"/>
<path fill-rule="evenodd" clip-rule="evenodd" d="M403.595 158.228C405.122 157.819 406.648 157.41 408.29 156.97C408.82 158.95 409.32 160.814 409.822 162.688L409.836 162.663C408.31 163.072 406.774 163.484 405.142 163.921C404.627 161.999 404.119 160.106 403.612 158.213L403.595 158.228Z" fill="black"/>
<path fill-rule="evenodd" clip-rule="evenodd" d="M403.612 158.213C404.12 160.106 404.629 162.009 405.142 163.921C406.774 163.484 408.31 163.072 409.836 162.663C409.889 162.939 409.93 163.208 410.003 163.478C412.839 174.065 415.674 184.642 418.51 195.228C418.575 195.47 418.669 195.703 418.743 195.942C417.236 196.346 415.72 196.752 414.058 197.198C415.298 201.824 416.525 206.403 417.749 210.972C415.875 211.474 414.001 211.976 412.05 212.499C412.984 215.986 413.895 219.386 414.817 222.824C402.173 226.212 389.625 229.574 377.01 232.955C376.094 229.535 375.186 226.145 374.244 222.629C372.64 223.058 371.085 223.475 369.54 223.889C369.344 223.082 369.18 222.277 368.965 221.476C368.382 219.261 367.78 217.052 367.177 214.801C365.612 215.22 364.086 215.629 362.56 216.038C361.744 212.996 360.927 209.943 360.085 206.804C358.55 207.216 357.052 207.617 355.546 208.02C354.635 204.62 353.724 201.22 352.8 197.772C350.858 198.292 348.974 198.797 347.091 199.302C346.682 197.775 346.27 196.24 345.833 194.607C344.201 195.045 342.674 195.454 341.139 195.865C340.483 193.38 339.835 190.883 339.189 188.395C339.052 187.883 338.915 187.371 338.749 186.753C342.236 185.819 345.684 184.895 349.123 183.973C349.521 185.461 349.917 186.939 350.337 188.504C351.834 188.102 353.312 187.706 354.848 187.295C356.082 191.902 357.296 196.433 358.525 201.021C360.081 200.604 361.568 200.205 363.152 199.781C363.08 199.511 363.01 199.25 362.94 198.989C357.559 178.907 352.178 158.826 346.795 138.734C346.717 138.445 346.591 138.168 346.485 137.886C349.566 137.06 352.657 136.232 355.738 135.406C359.626 149.915 363.516 164.432 367.416 178.989C368.933 178.583 370.411 178.187 371.975 177.767C370.246 171.315 368.52 164.872 366.773 158.352C370.299 157.407 373.728 156.489 377.157 155.57C378.888 162.032 380.617 168.484 382.359 174.985C383.876 174.579 385.344 174.185 386.88 173.774C385.557 168.838 384.242 163.931 382.894 158.898C386.023 158.06 389.076 157.242 392.138 156.422C393.869 162.884 395.601 169.346 397.348 175.866C398.845 175.464 400.313 175.071 401.859 174.657C400.541 169.74 399.224 164.824 397.865 159.753C399.835 159.225 401.729 158.717 403.612 158.213Z" fill="white"/>
</g>
<defs>
<clipPath id="clip0">
<rect width="84.27" height="109.13" fill="white" transform="translate(321.313 139.765) rotate(-15)"/>
</clipPath>
</defs>
</svg>
