<svg width="36" height="36" viewBox="0 0 36 36" fill="none" xmlns="http://www.w3.org/2000/svg">
<path d="M26.7026 0H9.29744C4.16261 0 0 4.16261 0 9.29744V26.7026C0 31.8374 4.16261 36 9.29744 36H26.7026C31.8374 36 36 31.8374 36 26.7026V9.29744C36 4.16261 31.8374 0 26.7026 0Z" fill="#FAEBD5"/>
<path d="M14.8358 30.9088L23.5752 25.4062C23.7431 25.3005 23.845 25.1159 23.845 24.9175V20.8647C30.0381 16.8575 28.5809 7.3857 28.5809 7.3857C18.7448 5.9285 15.1018 12.4859 15.1018 12.4859L11.063 12.1493C10.8571 12.1322 10.6578 12.2263 10.5402 12.3961L4.72383 20.7975C4.54228 21.0598 4.60769 21.4195 4.86993 21.6011C4.94866 21.6556 5.0397 21.6897 5.13487 21.7002L10.7303 22.3219C11.8232 24.5077 13.6447 25.2363 13.6447 25.2363L13.9516 30.454C13.9703 30.7724 14.2436 31.0153 14.562 30.9966C14.6592 30.9909 14.7534 30.9607 14.8358 30.9088Z" fill="#DB7944"/>
<path d="M14.8357 30.9088L23.5751 25.4062C23.743 25.3005 23.8449 25.1159 23.8449 24.9175V20.8647L13.6445 25.2363L13.9515 30.454C13.9702 30.7724 14.2435 31.0153 14.5619 30.9966C14.6591 30.9909 14.7533 30.9607 14.8357 30.9088Z" fill="#D40A0A"/>
<path d="M15.1018 12.4859L11.063 12.1493C10.8571 12.1322 10.6578 12.2263 10.5402 12.3961L4.72383 20.7975C4.54228 21.0598 4.60769 21.4195 4.86993 21.6011C4.94866 21.6556 5.0397 21.6897 5.13487 21.7002L10.7303 22.3219L15.1018 12.4859Z" fill="#D40A0A"/>
</svg>
