<svg width="48" height="48" viewBox="0 0 48 48" fill="none" xmlns="http://www.w3.org/2000/svg">
<path d="M19.578 21H16V32H19.578V21Z" fill="#4F4F4F"/>
<path d="M29.324 21.129C29.286 21.117 29.25 21.104 29.21 21.093C29.162 21.082 29.114 21.073 29.065 21.065C28.875 21.027 28.667 21 28.423 21C26.337 21 25.014 22.517 24.578 23.103V21H21V32H24.578V26C24.578 26 27.282 22.234 28.423 25C28.423 27.469 28.423 32 28.423 32H32V24.577C32 22.915 30.861 21.53 29.324 21.129Z" fill="#4F4F4F"/>
<path d="M17.75 19.5C18.7165 19.5 19.5 18.7165 19.5 17.75C19.5 16.7835 18.7165 16 17.75 16C16.7835 16 16 16.7835 16 17.75C16 18.7165 16.7835 19.5 17.75 19.5Z" fill="#4F4F4F"/>
<circle cx="24" cy="24" r="24" fill="#2D9CDB" fill-opacity="0.2"/>
</svg>
