<svg width="145" height="24" viewBox="0 0 145 24" fill="none" xmlns="http://www.w3.org/2000/svg">
<path d="M2.13 22H6.81V13.6H9.48C14.25 13.6 16.74 11.41 16.74 7.24C16.74 3.1 14.31 1.09 9.48 1.09H2.13V22ZM6.81 9.28V5.41H9C11.07 5.41 12.03 5.71 12.03 7.3C12.03 8.98 10.92 9.28 9 9.28H6.81ZM23.1378 22H27.6678L31.7478 9.82L35.7978 22H40.3578L46.7778 1.09H41.8278L37.8378 14.74L33.7278 2.35H29.7378L25.6878 14.74L21.6678 1.09H16.7478L23.1378 22ZM49.0577 22H53.2577V17.74H49.0577V22Z" fill="#1B395A"/>
<path d="M57.896 22H66.806C71.066 22 73.706 19.6 73.706 15.73C73.706 13.3 72.716 11.59 70.526 10.63C71.816 9.73 72.566 8.23 72.566 6.4C72.566 3.1 69.986 1.09 65.696 1.09H57.896V22ZM62.606 8.92V5.41H65.696C67.016 5.41 67.856 5.89 67.856 7.06C67.856 8.35 67.016 8.92 65.696 8.92H62.606ZM62.606 17.68V13.33H66.416C67.136 13.33 68.996 13.33 68.996 15.52C68.996 16.84 68.306 17.68 66.416 17.68H62.606Z" fill="#1576D8"/>
<rect x="91" y="1" width="54" height="22" rx="4" fill="#FAAD13"/>
<path d="M104.295 16H107.583C109.287 16 110.307 15.088 110.307 13.552C110.307 12.508 109.839 11.812 108.939 11.488C109.527 11.152 109.863 10.528 109.863 9.748C109.863 8.428 108.879 7.636 107.211 7.636H104.295V16ZM105.795 10.96V9.016H107.211C107.943 9.016 108.363 9.376 108.363 10.012C108.363 10.636 107.967 10.96 107.211 10.96H105.795ZM105.795 14.62V12.34H107.463C108.339 12.34 108.807 12.724 108.807 13.432C108.807 14.164 108.303 14.62 107.463 14.62H105.795ZM112.042 16H117.61V14.62H113.542V12.388H117.322V11.008H113.542V9.016H117.61V7.636H112.042V16ZM121.222 16H122.734V9.016H125.35V7.636H118.606V9.016H121.222V16ZM131.079 16H132.711L129.375 7.636H128.247L124.899 16H126.531L127.167 14.272H130.443L131.079 16ZM127.683 12.892L128.811 9.844L129.939 12.892H127.683Z" fill="white"/>
</svg>
