<svg width="36" height="36" viewBox="0 0 36 36" fill="none" xmlns="http://www.w3.org/2000/svg">
<path d="M26.7026 0H9.29744C4.16261 0 0 4.16261 0 9.29744V26.7026C0 31.8374 4.16261 36 9.29744 36H26.7026C31.8374 36 36 31.8374 36 26.7026V9.29744C36 4.16261 31.8374 0 26.7026 0Z" fill="#D0F0FD"/>
<path d="M26.5596 9.82446H9.55957V27.4327H26.5596V9.82446Z" fill="#90DFFF"/>
<path d="M10.5596 8.82446V28.1941H8.55957V8.82446H10.5596Z" fill="#006DFF" fill-opacity="0.5"/>
<path d="M8.57348 26.1801L27.5733 26.4469L27.5452 28.4467L8.54541 28.18L8.57348 26.1801Z" fill="#006DFF" fill-opacity="0.5"/>
<path d="M8.54541 10.8103L8.57348 8.81052L27.5733 9.07723L27.5452 11.077L8.54541 10.8103Z" fill="#006DFF" fill-opacity="0.5"/>
<path d="M27.5596 8.82446V28.1941H25.5596V8.82446H27.5596Z" fill="#006DFF" fill-opacity="0.5"/>
<path d="M11.2596 6.32446H7.85957C6.86546 6.32446 6.05957 7.13034 6.05957 8.12446V11.5245C6.05957 12.5186 6.86546 13.3245 7.85957 13.3245H11.2596C12.2537 13.3245 13.0596 12.5186 13.0596 11.5245V8.12446C13.0596 7.13034 12.2537 6.32446 11.2596 6.32446Z" fill="white"/>
<path d="M28.2596 6.32446H24.8596C23.8655 6.32446 23.0596 7.13034 23.0596 8.12446V11.5245C23.0596 12.5186 23.8655 13.3245 24.8596 13.3245H28.2596C29.2537 13.3245 30.0596 12.5186 30.0596 11.5245V8.12446C30.0596 7.13034 29.2537 6.32446 28.2596 6.32446Z" fill="white"/>
<path d="M11.2597 5.42446H7.85967C6.3685 5.42446 5.15967 6.63329 5.15967 8.12446V11.5245C5.15967 13.0156 6.3685 14.2245 7.85967 14.2245H11.2597C12.7508 14.2245 13.9597 13.0156 13.9597 11.5245V8.12446C13.9597 6.63329 12.7508 5.42446 11.2597 5.42446ZM7.85967 7.22446H11.2597C11.7567 7.22446 12.1597 7.6274 12.1597 8.12446V11.5245C12.1597 12.0215 11.7567 12.4245 11.2597 12.4245H7.85967C7.36261 12.4245 6.95967 12.0215 6.95967 11.5245V8.12446C6.95967 7.6274 7.36261 7.22446 7.85967 7.22446Z" fill="#2600FE"/>
<path d="M28.2597 5.42446H24.8597C23.3685 5.42446 22.1597 6.63329 22.1597 8.12446V11.5245C22.1597 13.0156 23.3685 14.2245 24.8597 14.2245H28.2597C29.7508 14.2245 30.9597 13.0156 30.9597 11.5245V8.12446C30.9597 6.63329 29.7508 5.42446 28.2597 5.42446ZM24.8597 7.22446H28.2597C28.7567 7.22446 29.1597 7.6274 29.1597 8.12446V11.5245C29.1597 12.0215 28.7567 12.4245 28.2597 12.4245H24.8597C24.3626 12.4245 23.9597 12.0215 23.9597 11.5245V8.12446C23.9597 7.6274 24.3626 7.22446 24.8597 7.22446Z" fill="#2600FE"/>
<path d="M11.2596 23.9327H7.85957C6.86546 23.9327 6.05957 24.7386 6.05957 25.7327V29.1327C6.05957 30.1268 6.86546 30.9327 7.85957 30.9327H11.2596C12.2537 30.9327 13.0596 30.1268 13.0596 29.1327V25.7327C13.0596 24.7386 12.2537 23.9327 11.2596 23.9327Z" fill="white"/>
<path d="M28.2596 23.9327H24.8596C23.8655 23.9327 23.0596 24.7386 23.0596 25.7327V29.1327C23.0596 30.1268 23.8655 30.9327 24.8596 30.9327H28.2596C29.2537 30.9327 30.0596 30.1268 30.0596 29.1327V25.7327C30.0596 24.7386 29.2537 23.9327 28.2596 23.9327Z" fill="white"/>
<path d="M11.2597 23.0327H7.85967C6.3685 23.0327 5.15967 24.2416 5.15967 25.7327V29.1327C5.15967 30.6239 6.3685 31.8327 7.85967 31.8327H11.2597C12.7508 31.8327 13.9597 30.6239 13.9597 29.1327V25.7327C13.9597 24.2416 12.7508 23.0327 11.2597 23.0327ZM7.85967 24.8327H11.2597C11.7567 24.8327 12.1597 25.2357 12.1597 25.7327V29.1327C12.1597 29.6298 11.7567 30.0327 11.2597 30.0327H7.85967C7.36261 30.0327 6.95967 29.6298 6.95967 29.1327V25.7327C6.95967 25.2357 7.36261 24.8327 7.85967 24.8327Z" fill="#2600FE"/>
<path d="M28.2597 23.0327H24.8597C23.3685 23.0327 22.1597 24.2416 22.1597 25.7327V29.1327C22.1597 30.6239 23.3685 31.8327 24.8597 31.8327H28.2597C29.7508 31.8327 30.9597 30.6239 30.9597 29.1327V25.7327C30.9597 24.2416 29.7508 23.0327 28.2597 23.0327ZM24.8597 24.8327H28.2597C28.7567 24.8327 29.1597 25.2357 29.1597 25.7327V29.1327C29.1597 29.6298 28.7567 30.0327 28.2597 30.0327H24.8597C24.3626 30.0327 23.9597 29.6298 23.9597 29.1327V25.7327C23.9597 25.2357 24.3626 24.8327 24.8597 24.8327Z" fill="#2600FE"/>
</svg>
