<svg width="36" height="36" viewBox="0 0 36 36" fill="none" xmlns="http://www.w3.org/2000/svg">
<mask id="mask0" mask-type="alpha" maskUnits="userSpaceOnUse" x="0" y="0" width="36" height="36">
<path d="M26.7026 0H9.29744C4.16261 0 0 4.16261 0 9.29744V26.7026C0 31.8374 4.16261 36 9.29744 36H26.7026C31.8374 36 36 31.8374 36 26.7026V9.29744C36 4.16261 31.8374 0 26.7026 0Z" fill="white"/>
</mask>
<g mask="url(#mask0)">
<path d="M26.7026 0H9.29744C4.16261 0 0 4.16261 0 9.29744V26.7026C0 31.8374 4.16261 36 9.29744 36H26.7026C31.8374 36 36 31.8374 36 26.7026V9.29744C36 4.16261 31.8374 0 26.7026 0Z" fill="#1FAD6C"/>
<path fill-rule="evenodd" clip-rule="evenodd" d="M36 13.1295L30.8571 17.4109L25.7143 11.1746L20.5714 13.6556L15.4286 11.1746L10.2857 22.8441L5.14286 19.477L0 24.1721V37.4944H36V13.1295Z" fill="white" fill-opacity="0.138221"/>
<path d="M20.5719 12.518L14.9191 9.7925L9.83688 21.326L5.03907 18.1858L-0.690205 23.4162C-1.10768 23.7973 -1.13715 24.4447 -0.756023 24.8622C-0.404217 25.2476 0.174469 25.3023 0.589771 25.0087L0.689968 24.928L5.24688 20.767L10.7352 24.3619L15.9389 12.557L20.5713 14.792L25.4359 12.445L30.7216 18.8554L36.6547 13.9161C37.0892 13.5544 37.1482 12.9091 36.7865 12.4746C36.4527 12.0736 35.8771 11.9925 35.4488 12.2668L35.345 12.3429L30.9929 15.966L25.9928 9.90381L20.5719 12.518Z" fill="#D0F0FD"/>
</g>
</svg>
