<svg width="232" height="310" viewBox="0 0 232 310" fill="none" xmlns="http://www.w3.org/2000/svg">
<path d="M0.0226135 302H197.423C197.423 302 185.623 215.9 83.6226 220.8C-3.67738 225 0.0226135 302 0.0226135 302Z" fill="#FAAD13"/>
<path d="M139.223 186.2C127.923 198.7 109.123 218.7 97.8225 242.4C88.9225 261.1 86.7225 282.1 83.4225 303.8L34.2225 302.8C34.2225 302.8 35.8225 295.3 42.7225 292.8C49.5225 290.2 54.2225 284.7 58.9225 252.3C63.6225 219.9 91.8225 176.6 108.823 162.5C113.423 158.7 117.523 155.2 121.023 152.3C127.723 163.2 133.923 174.5 139.223 186.2Z" fill="white"/>
<path d="M84.1226 304.6L84.2225 303.9C84.6225 301.4 84.9226 299 85.3226 296.5C88.1226 277.3 90.7226 259.1 98.5226 242.6C109.123 220.3 126.423 201.3 137.823 188.7L140.123 186.2L139.923 185.8C134.823 174.7 128.923 163.6 121.623 151.8L121.123 151.1L120.423 151.7C116.923 154.7 112.823 158.1 108.223 161.9C91.4226 175.8 62.9226 218.9 58.1226 252.2C53.3226 285.5 48.3225 289.9 42.4225 292.1C35.3225 294.8 33.5226 302.3 33.5226 302.7L33.3225 303.6L84.1226 304.6ZM138.323 186L136.723 187.8C125.223 200.5 107.823 219.6 97.1226 242.1C89.2226 258.8 86.5225 277.1 83.7225 296.4C83.4225 298.6 83.1225 300.9 82.7225 303.1L35.1226 302.1C35.8226 300.1 37.8225 295.4 42.8225 293.5C50.5225 290.6 54.9226 283.8 59.5226 252.4C64.3226 219.5 92.5226 176.8 109.123 163C113.423 159.4 117.323 156.2 120.723 153.3C127.723 164.7 133.423 175.4 138.323 186Z" fill="#030047"/>
<path d="M52.2226 282.4C63.4226 284.1 74.7226 285.4 85.9226 287.7C85.1226 293 84.3226 298.4 83.5226 303.9L34.3226 302.9C34.3226 302.9 35.9226 295.4 42.8226 292.9C46.4226 291.4 49.4226 289.1 52.2226 282.4Z" fill="#030047"/>
<path d="M51.5226 285.6C53.5226 286.7 55.4226 288.1 57.0226 289.7C57.5226 290.1 56.8226 290.8 56.3226 290.4C54.7226 288.8 52.9226 287.5 51.0226 286.5C50.4226 286.1 50.9226 285.3 51.5226 285.6Z" fill="white"/>
<path d="M49.0225 288.3C50.6225 290.2 52.3225 291.9 54.2225 293.5C54.7225 293.9 54.0225 294.6 53.5225 294.2C51.6225 292.6 49.9225 290.9 48.3225 289C47.9225 288.6 48.6225 287.9 49.0225 288.3Z" fill="white"/>
<path d="M157.423 159C162.323 175.1 169.923 201.5 184.623 223.3C196.123 240.5 213.023 253.1 230.023 267L203.923 308.8C203.923 308.8 198.323 303.6 199.623 296.4C200.923 289.2 198.523 282.4 173.123 261.8C147.723 241.2 124.923 194.8 121.423 173C120.523 167.1 119.623 161.8 118.923 157.3C131.823 157.1 144.623 157.6 157.423 159Z" fill="white"/>
<path d="M204.123 310L231.023 266.9L230.523 266.5C228.623 264.9 226.623 263.4 224.723 261.8C209.623 249.6 195.423 238 185.223 222.9C171.423 202.4 163.923 177.8 159.023 161.5L158.023 158.3L157.523 158.2C145.423 156.9 132.823 156.3 118.923 156.5H118.023L118.123 157.4C118.823 161.9 119.723 167.2 120.623 173.1C124.023 194.6 146.423 241.2 172.523 262.4C198.723 283.6 199.923 290 198.723 296.3C197.323 303.8 203.023 309.2 203.223 309.4L204.123 310ZM229.023 267.2L203.823 307.6C202.423 306 199.423 301.8 200.423 296.6C201.923 288.5 198.223 281.2 173.623 261.3C147.823 240.4 125.523 194.3 122.223 173C121.323 167.4 120.523 162.4 119.823 158.1C133.023 158 145.223 158.5 156.823 159.8L157.523 162.1C162.523 178.5 170.023 203.2 183.923 223.9C194.223 239.2 208.523 250.9 223.723 263.1C225.523 264.4 227.323 265.8 229.023 267.2Z" fill="#030047"/>
<path d="M195.623 283C202.823 274.2 209.723 265.2 217.423 256.8C221.623 260.2 225.823 263.6 230.123 267.1L204.023 308.9C204.023 308.9 198.423 303.7 199.723 296.5C200.323 292.6 200.023 288.8 195.623 283Z" fill="#030047"/>
<path d="M64.9226 218.9C75.8226 193.4 96.5226 172.6 108.823 162.5C113.423 158.7 117.523 155.2 121.023 152.3C122.023 154 123.023 155.6 124.023 157.3C135.223 157.3 146.323 157.8 157.423 159C161.823 173.3 168.323 195.7 179.923 215.8C171.623 224.6 151.823 238.2 147.523 239.6C138.223 226.9 131.923 212.2 127.723 199C119.123 208.9 109.523 221 101.923 234.5C90.1226 231.9 68.2226 221.9 64.9226 218.9Z" fill="white"/>
<path d="M147.223 240.5L147.723 240.3C152.423 238.8 172.423 224.8 180.423 216.3L180.823 215.9L180.523 215.4C169.623 196.6 163.223 175.5 158.923 161.5L157.923 158.3L157.423 158.2C146.923 157.1 136.123 156.5 124.323 156.5C123.423 154.9 122.423 153.4 121.523 151.8L121.023 151.1L120.323 151.7C116.823 154.7 112.723 158.1 108.123 161.9C100.923 167.9 76.3226 189.7 64.0226 218.6L63.8226 219.1L64.2226 219.5C67.9226 222.7 90.1226 232.8 101.623 235.3L102.123 235.4L102.423 234.9C110.223 220.9 120.223 208.7 127.223 200.5C132.223 215.9 138.823 229.2 146.723 240L147.223 240.5ZM179.023 215.7C170.723 224.3 152.723 236.7 147.823 238.7C139.923 227.7 133.423 214.3 128.423 198.8L128.023 197.5L127.123 198.5C120.023 206.7 109.723 219.1 101.523 233.7C89.9226 231 70.0226 221.8 65.8226 218.7C78.1226 190.4 102.123 169 109.323 163.1C113.623 159.5 117.523 156.3 120.923 153.4C121.823 154.8 122.623 156.2 123.523 157.7L123.723 158.1H124.023C135.723 158.1 146.423 158.7 156.823 159.8L157.523 162C161.823 175.9 168.223 196.9 179.023 215.7Z" fill="#030047"/>
<path d="M197.923 285.2C199.923 284 202.023 283.1 204.223 282.5C204.823 282.3 205.123 283.3 204.523 283.4C202.323 284 200.323 284.8 198.423 286C197.923 286.4 197.423 285.5 197.923 285.2Z" fill="white"/>
<path d="M199.123 288.8C201.523 288.4 203.923 287.8 206.223 287C206.823 286.8 207.123 287.7 206.523 287.9C204.223 288.7 201.823 289.3 199.423 289.7C198.723 289.8 198.423 288.9 199.123 288.8Z" fill="white"/>
<path d="M126.723 196.7C126.823 196.7 126.823 196.7 126.923 196.7C127.323 196.6 127.523 196.2 127.423 195.8C124.623 186.2 124.023 181.2 124.023 181.1L123.923 180.6L123.423 180.5C123.423 180.5 119.623 179.6 116.923 178.3C116.523 178.1 116.123 178.3 115.923 178.7C115.723 179.1 115.923 179.5 116.323 179.7C118.523 180.8 121.423 181.6 122.623 181.9C122.823 183.4 123.623 188.2 126.023 196.3C126.123 196.5 126.423 196.7 126.723 196.7Z" fill="#030047"/>
<path d="M162.423 238.7C163.423 240.5 163.723 242.6 163.323 244.6C163.223 245.2 162.223 245 162.423 244.3C162.823 242.5 162.523 240.7 161.623 239.1C161.323 238.6 162.123 238.1 162.423 238.7Z" fill="#030047"/>
<path d="M67.1226 234.5C68.6226 233.9 69.9226 232.9 70.8226 231.5C71.1226 231 72.0226 231.5 71.6226 232C70.6226 233.6 69.1226 234.8 67.3226 235.4C66.8226 235.7 66.6226 234.7 67.1226 234.5Z" fill="#030047"/>
<path d="M42.9225 72.3C42.9225 72.3 41.4225 69.0999 45.7225 68.3999C47.7225 68.0999 52.2225 68.8999 56.6225 70.6999L57.0225 69.1C57.0225 69.1 53.6225 65 56.5225 63.5C59.7225 61.8 64.9225 72.0999 67.2225 78.1999C67.5225 78.6999 67.8225 79.2999 68.0225 79.8999C70.5225 87.2999 75.2225 114.1 91.8225 112.5C101.123 111.6 98.9225 104.9 108.823 96L124.823 102.8C138.023 123.5 109.023 151.6 79.4225 139.4C60.5225 131.6 56.3225 91.1 52.2225 88.5C44.7225 83.7 39.4225 82.8 41.4225 77.5C41.4225 77.4 39.5225 75.4 42.9225 72.3Z" fill="white"/>
<path d="M93.9225 142.9C105.923 142.9 116.423 137.1 122.323 130C129.623 121.3 130.823 110.6 125.423 102.2L125.323 102L108.623 94.9L108.223 95.2C104.023 99 102.023 102.3 100.323 105.1C98.1226 108.8 96.7225 111 91.7225 111.5C78.1225 112.8 72.8226 93.8 70.0226 83.6C69.5226 81.9 69.1225 80.5 68.8225 79.4C68.6225 78.8 68.3226 78.3 68.0226 77.7C67.8226 77.2 62.7225 64.2 58.3225 62.6C57.6225 62.3 56.9226 62.4 56.2226 62.7C55.4226 63.1 54.9226 63.8 54.7226 64.6C54.3226 66.3 55.6226 68.4 56.2226 69.1L56.1226 69.6C51.9226 68.1 47.7226 67.2 45.6226 67.6C44.0226 67.9 42.9225 68.5 42.3225 69.5C41.8225 70.4 41.9226 71.4 42.1226 72C40.9226 73.2 40.2226 74.5 40.2226 75.7C40.2226 76.5 40.4226 77.1 40.6226 77.5C39.2226 81.9 42.5225 83.7 46.9225 86.1C48.4225 86.9 50.0225 87.8 51.8225 89C52.8225 89.7 54.3225 94.6 55.8225 99.9C59.8225 113.7 65.8226 134.5 79.1226 140C84.2226 142 89.2225 142.9 93.9225 142.9ZM124.323 103.2C129.323 111.2 128.123 120.8 121.223 129.1C113.223 138.6 96.8225 145.6 79.7225 138.6C67.0225 133.4 61.1226 113 57.2226 99.5C55.1226 92.2 54.0226 88.7 52.6226 87.8C50.8226 86.6 49.1226 85.7 47.6226 84.9C42.5226 82.1 40.9226 81 42.1226 77.7L42.3225 77.3L42.0226 77C42.0226 76.9 40.7226 75.5 43.5226 72.9L43.9225 72.5L43.7226 72C43.7226 72 43.3226 71.1 43.7226 70.3C44.0226 69.7 44.8225 69.3 45.9225 69.1C47.6225 68.8 51.8225 69.5 56.4225 71.3L57.2226 71.6L57.9225 68.8L57.7226 68.5C57.2226 67.9 56.0226 66.1 56.2226 64.9C56.3226 64.5 56.5225 64.2 56.9225 64C57.0225 63.9 57.3226 63.8 57.7226 64C60.0226 64.9 63.5225 70.9 65.9225 76.7L66.6226 78.4C66.9226 78.9 67.2225 79.4 67.4225 79.9C67.7225 80.9 68.1226 82.3 68.6226 84C71.5226 94.3 76.7225 113.1 90.4225 113.1C90.9225 113.1 91.4225 113.1 91.9225 113C97.7225 112.4 99.4225 109.7 101.723 105.9C103.323 103.3 105.223 100.2 109.023 96.7L124.323 103.2Z" fill="#030047"/>
<path d="M89.2226 124C89.9226 120.2 90.3226 116.3 90.8226 112.4C91.1226 112.4 91.4226 112.4 91.8226 112.4C101.123 111.5 98.9226 104.8 108.823 95.8999L124.823 102.7C136.823 121.6 113.223 144.7 86.5226 139.4C87.4226 134.2 88.4226 129.1 89.2226 124Z" fill="#030047"/>
<path d="M44.6226 71.2999C47.4226 71.4999 50.1226 72.1999 52.6226 73.3999C53.2226 73.6999 52.7226 74.4999 52.1226 74.2999C49.7226 73.1999 47.2226 72.5999 44.6226 72.3999C43.9226 72.2999 43.9226 71.2999 44.6226 71.2999Z" fill="#030047"/>
<path d="M42.8225 75.7C45.8225 75.8 48.5225 76.8 50.9225 78.6C51.4225 79 50.9225 79.9 50.4225 79.5C48.2225 77.8 45.6225 76.9 42.8225 76.7C42.2225 76.7 42.2225 75.7 42.8225 75.7Z" fill="#030047"/>
<path d="M171.923 124.5L180.523 101.9C181.123 100.3 180.323 98.4 178.723 97.8L165.123 92.6C163.523 92 161.623 92.8 161.023 94.4L152.423 117C151.823 118.6 152.623 120.5 154.223 121.1L167.823 126.3C169.423 126.9 171.323 126.1 171.923 124.5Z" fill="white"/>
<path d="M168.923 127.3C169.423 127.3 170.023 127.2 170.523 127C171.523 126.6 172.223 125.8 172.623 124.8L181.223 102.2C182.023 100.2 181.023 97.8999 178.923 97.0999L165.323 91.8999C164.323 91.4999 163.323 91.5999 162.323 91.9999C161.323 92.3999 160.623 93.1999 160.223 94.1999L151.623 116.8C151.223 117.8 151.323 118.8 151.723 119.8C152.123 120.8 152.923 121.5 153.923 121.9L167.523 127.1C168.023 127.2 168.523 127.3 168.923 127.3ZM164.023 93.0999C164.323 93.0999 164.623 93.1999 164.923 93.2999L178.523 98.4999C179.723 98.9999 180.423 100.4 179.923 101.6L171.323 124.2C171.123 124.8 170.623 125.3 170.023 125.5C169.423 125.8 168.823 125.8 168.123 125.6L154.523 120.4C153.923 120.2 153.423 119.7 153.223 119.1C152.923 118.5 152.923 117.9 153.123 117.2L161.723 94.5999C161.923 93.9999 162.423 93.4999 163.023 93.2999C163.423 93.1999 163.723 93.0999 164.023 93.0999Z" fill="#030047"/>
<path d="M171.023 120.7L177.423 104.1C178.023 102.5 177.223 100.6 175.623 99.9999L166.123 96.3999C164.523 95.7999 162.623 96.5999 162.023 98.1999L155.623 114.8C155.023 116.4 155.823 118.3 157.423 118.9L166.923 122.5C168.523 123.2 170.423 122.3 171.023 120.7Z" fill="#030047"/>
<path d="M168.023 123.5C169.623 123.5 171.123 122.5 171.723 121L178.123 104.4C178.923 102.4 177.923 100.1 175.823 99.2999L166.323 95.6999C164.323 94.8999 162.023 95.8999 161.223 97.9999L154.823 114.6C154.423 115.6 154.523 116.6 154.923 117.6C155.323 118.6 156.123 119.3 157.123 119.7L166.623 123.3C167.123 123.4 167.623 123.5 168.023 123.5ZM170.323 120.4C169.823 121.6 168.423 122.3 167.223 121.8L157.723 118.2C157.123 118 156.623 117.5 156.423 116.9C156.123 116.3 156.123 115.7 156.323 115L162.723 98.3999C163.223 97.1999 164.623 96.4999 165.823 96.9999L175.323 100.6C176.523 101.1 177.223 102.5 176.723 103.7L170.323 120.4Z" fill="#030047"/>
<path d="M173.723 113.7L164.623 96.2C165.123 96.2 165.623 96.1999 166.023 96.3999L175.523 100C177.123 100.6 178.023 102.5 177.323 104.1L173.723 113.7Z" fill="white"/>
<path d="M173.823 115.5L178.123 104.3C178.923 102.3 177.923 99.9999 175.823 99.1999L166.323 95.6C165.723 95.4 165.123 95.2999 164.523 95.3999L163.423 95.5L173.823 115.5ZM166.023 97.1L175.323 100.7C176.523 101.2 177.223 102.6 176.723 103.8L173.623 111.8L166.023 97.1Z" fill="#030047"/>
<path d="M126.323 104.9V140.1C126.323 149.9 134.223 157.8 144.023 157.8H162.823C172.623 157.8 180.523 149.9 180.523 140.1V104.9L160.823 116.2V87.2H144.023C134.223 87.2 126.323 95.0999 126.323 104.9Z" fill="#FAAD13"/>
<path d="M180.223 182.7C180.623 182.7 181.023 182.4 181.023 181.9V144.4C181.023 140.4 177.723 137.1 173.723 137.1C170.523 137.1 167.923 134.5 167.923 131.3V108.6C167.923 108.2 167.623 107.8 167.123 107.8C166.623 107.8 166.323 108.1 166.323 108.6V131.3C166.323 135.3 169.623 138.6 173.623 138.6C176.823 138.6 179.423 141.2 179.423 144.4V181.9C179.523 182.3 179.823 182.7 180.223 182.7Z" fill="#030047"/>
<path d="M178.223 179.9H182.223V183.9H178.223V179.9Z" fill="#030047"/>
<path d="M143.623 92.1H155.723C156.123 92.1 156.523 91.8 156.523 91.3C156.523 90.8 156.223 90.5 155.723 90.5H143.623C143.223 90.5 142.823 90.8 142.823 91.3C142.823 91.8 143.123 92.1 143.623 92.1Z" fill="white"/>
<path d="M123.922 93.7001C134.122 96.3001 142.122 101.2 148.322 110C147.822 110.6 147.622 111.3 147.822 112.2C150.322 122.3 164.922 166.2 164.922 166L108.322 163.1C108.322 163.1 85.2225 83.9001 123.922 93.7001Z" fill="#030047"/>
<path d="M164.923 166.8H165.823C165.823 166.8 151.023 122 148.623 112C148.523 111.4 148.623 110.9 148.923 110.4L149.323 110L149.023 109.5C142.923 101 135.023 95.7 124.123 92.9C116.823 91.1 111.123 92.2 107.223 96.3C92.7225 111.3 107.123 161.2 107.723 163.3L107.823 163.8L164.923 166.8ZM147.423 110C147.023 110.7 146.923 111.5 147.123 112.4C148.423 117.6 152.923 132 156.623 143.1C161.223 157.4 163.123 163 163.923 165.2L108.923 162.4C107.423 157 95.1225 111 108.223 97.4C111.723 93.7 117.023 92.7 123.723 94.4L123.923 93.7L123.723 94.4C134.123 97 141.623 102 147.423 110Z" fill="#030047"/>
<path d="M101.623 116.9C102.023 116.9 102.323 116.6 102.323 116.2C102.323 116.1 102.823 110.4 103.523 106.7C103.623 106.3 103.323 105.9 102.923 105.8C102.523 105.7 102.123 106 102.023 106.4C101.323 110.2 100.823 115.9 100.823 116.1C100.823 116.5 101.123 116.9 101.623 116.9Z" fill="white"/>
<path d="M142.023 93.4C144.423 92.5 145.423 96.3 143.123 97.3C136.423 100 131.923 106 129.523 112.6C126.723 120.3 128.023 127 133.423 133.1C142.323 143.1 155.423 150.4 168.923 150.4C171.523 150.4 171.523 154.4 168.923 154.4C153.123 154.5 134.823 144.6 126.723 130.8C118.923 117.4 128.623 98.8 142.023 93.4Z" fill="#FAAD13"/>
<path d="M148.323 110C163.423 131.9 129.423 159.2 95.6226 146.3C74.0226 138.1 68.0226 102.3 64.4226 98.1C58.3226 90.7 50.3226 87.9 52.5226 82.2C52.5226 82.2 51.6226 78.4 55.2226 77.1C54.9226 75.3 57.8226 73.3 60.5226 75.4C62.1226 76.7 64.0226 79 69.9226 79.4C75.8226 79.9 80.6226 82.9 82.4226 88.4C84.9226 96.4 91.6226 119 110.523 120C130.523 121.1 133.623 109.3 133.623 109.3L148.323 110Z" fill="white"/>
<path d="M113.623 150.4C128.223 150.4 140.723 143.9 147.523 135.3C154.023 127 154.623 117.6 149.023 109.5L148.823 109.2L133.223 108.7L133.023 109.3C132.923 109.8 129.823 120.5 110.623 119.5C92.6226 118.6 85.8226 97.1 83.3226 89L83.1226 88.4C81.3226 82.8 76.6226 79.3 70.0226 78.8C65.1226 78.4 63.1226 76.7 61.6226 75.4C61.4226 75.2 61.2226 75.1 61.0226 74.9C59.2226 73.5 57.3226 73.7 56.1226 74.4C55.2226 74.9 54.5226 75.8 54.4226 76.7C51.7226 78 51.4226 80.7 51.7226 82.2C50.2226 86.3 53.4226 89 57.3226 92.4C59.3226 94.2 61.7226 96.1 63.7226 98.6C64.5226 99.5 65.5226 102.6 66.9226 106.5C71.0226 118.5 78.7226 140.7 95.2226 147C101.623 149.4 107.723 150.4 113.623 150.4ZM147.923 110.7C152.923 118.2 152.323 126.8 146.323 134.4C137.423 145.7 116.723 153.5 95.9226 145.6C80.0226 139.6 72.5226 117.7 68.5226 106C67.0226 101.7 66.0226 98.8 65.1226 97.6C62.9226 95 60.6226 93 58.5226 91.2C54.3226 87.6 52.1226 85.6 53.4226 82.5L53.5226 82.3L53.4226 82.1C53.3226 81.8 52.8226 79 55.6226 77.9L56.2226 77.7L56.1226 77.1C56.0226 76.6 56.4226 76.1 57.0226 75.7C57.4226 75.5 58.7226 74.9 60.2226 76.1C60.4226 76.2 60.6226 76.4 60.8226 76.6C62.3226 77.9 64.6226 79.9 70.1226 80.3C76.1226 80.8 80.4226 83.9 81.9226 88.8L82.1226 89.4C84.7226 97.8 91.7226 120 110.723 121C128.823 122 133.523 112.7 134.423 110.3L147.923 110.7Z" fill="#030047"/>
<path d="M127.823 136.8C125.523 131.1 123.523 125.1 120.823 119.5C131.723 117 133.723 109.5 133.723 109.5L148.323 110C157.723 123.6 148.123 139.3 131.523 146.1C130.323 143 129.123 139.9 127.823 136.8Z" fill="#030047"/>
<path d="M60.1226 81.6999C61.6226 78.9999 65.4226 82 65.8226 84.3C68.9226 83.8 71.8226 85.3 73.2226 88.1C73.5226 88.7 72.6226 89.2 72.3226 88.6C71.0226 86 68.2226 84.6 65.4226 85.3C65.1226 85.4 64.7226 85.2 64.8226 84.8C64.9226 83.9 61.6226 79.3 60.8226 83C60.7226 83.7 61.5226 85.5 61.8226 86C62.7226 87.6 64.0226 88.8 65.5226 89.8C66.1226 90.1 65.6226 91 65.0226 90.7C62.6226 89.4 58.3226 84.9 60.1226 81.6999Z" fill="#030047"/>
<path d="M56.3226 77.9999C58.2226 78.4999 59.8226 79.5 60.9226 81.1C61.3226 81.6 60.5226 82.2999 60.1226 81.6999C59.1226 80.2999 57.8226 79.2999 56.1226 78.8999C55.6226 78.8999 55.7226 77.8999 56.3226 77.9999Z" fill="#030047"/>
<path d="M54.2226 81.6C57.5226 81.6 59.8226 84.8 62.0226 87C62.5226 87.5 61.7226 88.2 61.3226 87.7C59.4226 85.8 57.2226 82.7 54.2226 82.6C53.5226 82.6 53.5226 81.6 54.2226 81.6Z" fill="#030047"/>
<path d="M133.223 146.8C133.323 146.8 133.423 146.8 133.523 146.7C139.423 143.8 144.123 140.2 149.323 131.7C149.523 131.3 149.423 130.9 149.023 130.7C148.623 130.5 148.223 130.6 148.023 131C143.023 139.3 138.723 142.6 132.823 145.5C132.423 145.7 132.323 146.1 132.523 146.5C132.723 146.7 132.923 146.8 133.223 146.8Z" fill="white"/>
<path d="M157.522 33.7117L164.994 36.5693L162.136 44.0413L154.664 41.1837L157.522 33.7117Z" fill="#FAAD13"/>
<path d="M192.323 83.6L177.423 65.4C177.423 65.4 168.623 75.1 176.423 83.3C184.223 91.5 192.323 83.6 192.323 83.6Z" fill="#030047"/>
<path d="M171.523 82.3999L163.723 78.7L164.523 87.8L171.523 82.3999Z" fill="#030047"/>
<path d="M113.323 10.8L115.723 1L105.423 4L113.323 10.8Z" fill="#030047"/>
<path d="M186.923 43.3C186.923 49.2 191.723 54.1 197.723 54.1C203.623 54.1 208.423 51 208.423 43.3C208.423 37.4 203.623 32.5 197.723 32.5C191.723 32.6 186.923 37.4 186.923 43.3Z" fill="white"/>
<path d="M197.623 54.8C204.923 54.8 209.123 50.6 209.123 43.3C209.123 37 203.923 31.8 197.623 31.8C191.323 31.8 186.123 37 186.123 43.3C186.123 49.6 191.323 54.8 197.623 54.8ZM197.623 33.3C203.123 33.3 207.623 37.8 207.623 43.3C207.623 52 201.323 53.3 197.623 53.3C192.123 53.3 187.623 48.8 187.623 43.3C187.623 37.8 192.123 33.3 197.623 33.3Z" fill="#030047"/>
<path d="M138.323 5.99995C138.323 8.89995 140.723 11.3 143.623 11.3C146.523 11.3 148.923 9.79995 148.923 5.99995C148.923 3.09995 146.523 0.699951 143.623 0.699951C140.723 0.699951 138.323 3.09995 138.323 5.99995Z" fill="white"/>
<path d="M143.623 12C147.423 12 149.623 9.8 149.623 6C149.623 2.7 146.923 0 143.623 0C140.323 0 137.623 2.7 137.623 6C137.623 9.3 140.223 12 143.623 12ZM143.623 1.5C146.123 1.5 148.123 3.5 148.123 6C148.123 9.7 145.623 10.5 143.623 10.5C141.123 10.5 139.123 8.5 139.123 6C139.023 3.5 141.123 1.5 143.623 1.5Z" fill="#030047"/>
<path d="M62.6225 52.2C62.6225 55.7 65.4225 58.5 68.9225 58.5C72.4225 58.5 75.2225 56.7 75.2225 52.2C75.2225 48.7 72.4225 45.9 68.9225 45.9C65.4225 45.9 62.6225 48.7 62.6225 52.2Z" fill="#030047"/>
<path d="M173.223 59.1L153.423 50.9L155.023 72.8L173.223 59.1Z" fill="#FAAD13"/>
<path d="M146.223 54.6C146.423 54.6 146.623 54.5 146.823 54.3C147.123 54 147.023 53.5 146.723 53.2L141.523 48.8C141.223 48.5 140.723 48.6 140.423 48.9C140.123 49.2 140.223 49.7 140.523 50L145.723 54.4C145.823 54.5 146.023 54.6 146.223 54.6Z" fill="#030047"/>
<path d="M195.223 76.4C195.323 76.4 195.523 76.4001 195.623 76.3001L201.623 72.7001C202.023 72.5001 202.123 72.0001 201.923 71.7001C201.723 71.3001 201.223 71.2 200.923 71.4L194.923 75.0001C194.523 75.2001 194.423 75.7001 194.623 76.0001C194.723 76.3001 194.923 76.4 195.223 76.4Z" fill="#030047"/>
<path d="M174.123 41.6C174.523 41.6 174.923 41.3 174.923 40.8V37C174.923 36.6 174.623 36.2 174.123 36.2C173.623 36.2 173.323 36.5 173.323 37V40.8C173.323 41.3 173.723 41.6 174.123 41.6Z" fill="#030047"/>
<path d="M192.323 98.9C192.623 98.9 192.923 98.7 193.023 98.4C193.123 98 192.923 97.6 192.523 97.5L184.623 95.2C184.223 95.1 183.823 95.3 183.723 95.7C183.623 96.1 183.823 96.5001 184.223 96.6001L192.123 98.9C192.223 98.9 192.323 98.9 192.323 98.9Z" fill="#030047"/>
<path d="M155.723 82.8C156.123 82.8 156.423 82.5001 156.423 82.1001C156.423 81.7001 156.123 81.3 155.723 81.3L150.723 80.8C150.323 80.8 149.923 81.1 149.923 81.5C149.923 81.9 150.223 82.3 150.623 82.3L155.723 82.8C155.723 82.8 155.623 82.8 155.723 82.8Z" fill="#030047"/>
<path d="M118.523 25.6C118.723 25.6 118.923 25.5 119.023 25.4L122.523 21.6C122.823 21.3 122.823 20.8 122.523 20.5C122.223 20.2 121.723 20.2 121.423 20.5L117.923 24.3C117.623 24.6 117.623 25.1 117.923 25.4C118.223 25.5 118.323 25.6 118.523 25.6Z" fill="#030047"/>
<path d="M111.723 41.6H116.323C116.723 41.6 117.123 41.3 117.123 40.8C117.123 40.3 116.823 40 116.323 40H111.723C111.323 40 110.923 40.3 110.923 40.8C110.923 41.3 111.323 41.6 111.723 41.6Z" fill="#030047"/>
<path d="M98.4236 6.00641L115.394 22.9768L98.4236 39.9472L81.4532 22.9768L98.4236 6.00641Z" fill="#FAAD13"/>
<path d="M73.2225 64.3001C73.4225 64.3001 73.5225 64.2001 73.7225 64.1001L75.7225 62.4001C76.0225 62.1001 76.1225 61.7001 75.8225 61.3001C75.5225 60.9001 75.1225 60.9 74.7225 61.2L72.7225 62.9001C72.4225 63.2001 72.3225 63.6001 72.6225 64.0001C72.8225 64.2001 73.0225 64.3001 73.2225 64.3001Z" fill="#030047"/>
<path d="M67.3225 33.1C67.5225 33.1 67.6226 33.1 67.7226 33C68.0226 32.8 68.1226 32.3 67.9226 32L65.1226 28C64.9226 27.7 64.4226 27.6 64.1226 27.8C63.8226 28 63.7226 28.5 63.9226 28.8L66.7226 32.8C66.8226 33 67.0225 33.1 67.3225 33.1Z" fill="#030047"/>
<path d="M103.923 25.5C104.123 25.5 104.323 25.4001 104.423 25.3001C104.723 25.0001 104.723 24.5 104.423 24.2L97.1226 16.9C96.8226 16.6 96.3226 16.6 96.0226 16.9C95.7226 17.2 95.7226 17.7 96.0226 18L103.323 25.3001C103.623 25.4001 103.823 25.5 103.923 25.5Z" fill="white"/>
<path d="M100.323 29.2C100.523 29.2 100.723 29.1 100.823 29C101.123 28.7 101.123 28.2 100.823 27.9L93.5226 20.6C93.2226 20.3 92.7226 20.3 92.4226 20.6C92.1226 20.9 92.1226 21.4 92.4226 21.7L99.7226 29C99.9226 29.1 100.123 29.2 100.323 29.2Z" fill="white"/>
<path d="M193.623 48.2C193.823 48.2 194.023 48.1 194.123 48L202.323 39.8C202.623 39.5 202.623 39 202.323 38.7C202.023 38.4 201.523 38.4 201.223 38.7L193.023 46.9C192.723 47.2 192.723 47.7 193.023 48C193.223 48.1 193.423 48.2 193.623 48.2Z" fill="#030047"/>
<path d="M201.723 48.2C201.923 48.2 202.123 48.1 202.223 48C202.523 47.7 202.523 47.2 202.223 46.9L194.023 38.7C193.723 38.4 193.223 38.4 192.923 38.7C192.623 39 192.623 39.5 192.923 39.8L201.123 48C201.323 48.1 201.523 48.2 201.723 48.2Z" fill="#030047"/>
<path d="M115.222 66.3001C119.622 60.8001 128.622 58.2001 134.322 62.5001C140.022 66.8001 140.822 75.5001 136.022 81.9001C136.022 81.9001 136.022 81.9001 135.922 82.0001C136.522 82.5001 137.022 83.0001 137.322 83.5001C139.922 86.9001 138.422 90.8001 135.022 91.5001C132.022 92.1001 128.222 91.0001 126.522 87.7001C123.222 88.2001 119.722 87.6001 116.922 85.8001C108.322 80.3001 110.222 72.5001 115.222 66.3001Z" fill="white"/>
<path d="M133.522 92.3C134.122 92.3 134.722 92.2 135.222 92.1C137.022 91.7 138.522 90.5 139.122 88.9C139.822 87 139.422 84.8 138.022 83C137.722 82.6 137.422 82.2 137.022 81.8C141.622 75.1 140.722 66.3 134.822 61.8C128.622 57.1 119.222 60.1 114.722 65.7C112.322 68.7 109.622 73.2 110.422 78C110.922 81.2 113.022 84 116.622 86.2C119.422 88 122.822 88.7 126.222 88.3C127.822 91.2 130.822 92.3 133.522 92.3ZM127.522 61C129.822 61 132.022 61.6 133.922 63C139.322 67.1 140.022 75.3 135.522 81.4L135.122 82L135.622 82.5C136.122 83 136.622 83.4 136.922 83.9C138.022 85.4 138.322 87 137.822 88.4C137.322 89.6 136.322 90.4 135.022 90.7C132.422 91.2 128.922 90.4 127.322 87.3L127.022 86.8L126.522 86.9C123.322 87.4 120.022 86.8 117.422 85.1C114.222 83.1 112.422 80.7 111.922 77.9C111.222 73.7 113.722 69.5 115.922 66.8C118.522 63.4 123.122 61 127.522 61Z" fill="#030047"/>
<path d="M123.173 73.4516C122.637 73.3165 122.313 72.7729 122.448 72.2374C122.583 71.7019 123.126 71.3773 123.662 71.5124C124.197 71.6474 124.522 72.1911 124.387 72.7266C124.252 73.2621 123.708 73.5866 123.173 73.4516Z" fill="#030047"/>
<path d="M115.123 71.5C116.723 69.9 118.423 68.6 120.423 67.5C121.023 67.2 121.523 68 120.923 68.4C119.023 69.4 117.323 70.7 115.823 72.3C115.323 72.7 114.623 72 115.123 71.5Z" fill="#030047"/>
<path d="M130.223 83.9C132.523 83.4 134.923 84.5 135.923 86.6C136.223 87.2 135.323 87.7 135.023 87.1C134.223 85.4 132.323 84.4 130.423 84.8C129.823 85 129.623 84.1 130.223 83.9Z" fill="#030047"/>
<path d="M125.823 62.6C127.523 65.4 136.923 73.1 131.723 77.5C130.423 78.6 129.222 78.9 129.922 80.5C130.922 82 132.422 81.3 132.422 81.3C134.322 82.2 135.723 82.3 136.623 83.4C145.523 83.5 144.523 75.1 142.623 72.7C142.623 72.7 146.123 62.4 137.823 61.9C137.823 61.9 133.922 50.1 127.922 52.1C120.122 54.7 125.823 62.6 125.823 62.6Z" fill="#030047"/>
</svg>
