<svg width="363" height="219" viewBox="0 0 363 219" fill="none" xmlns="http://www.w3.org/2000/svg">
<path d="M131.5 139.6L82.5 143.3L109.8 98.3L146.6 122.6L131.5 139.6Z" fill="#030047"/>
<path d="M139 70.3C130.7 72.9 113 82.2 108 80.1C104.9 78.7 104.3 75.2 103.1 71.2C98.3001 75.7 91.8001 78.3 85.1001 80.2C87.1001 93 105.5 105.6 105.5 105.6C105.5 105.6 147.3 67.7 139 70.3Z" fill="#FAAD13"/>
<path d="M105.6 106.5L105.1 106.2C104.3 105.7 86.5 93.3 84.4 80.3L84.3 79.6L84.9 79.4C92.8 77.2 98.5001 74.4 102.6 70.6L103.5 69.8L103.8 71C104 71.5 104.1 72.1 104.3 72.6C105.2 75.8 105.9 78.4 108.3 79.4C111.4 80.8 121.1 76.7 128.9 73.5C132.6 71.9 136.2 70.4 138.8 69.6C139.8 69.3 140.4 69.4 140.7 70C141.2 70.8 141.9 72.1 123.9 89.5C115.2 97.9 106.2 106.1 106.1 106.2L105.6 106.5ZM86 80.7C88.2 91.7 102.6 102.6 105.5 104.6C121 90.6 137.3 74.7 139.2 71C136.7 71.8 133.2 73.3 129.5 74.8C120.7 78.5 111.5 82.3 107.8 80.7C104.8 79.4 103.9 76.2 102.9 72.9C102.9 72.8 102.8 72.6 102.8 72.5C98.7 76 93.3 78.6 86 80.7Z" fill="#FAAD13"/>
<path d="M41.2001 141.1C41.0001 141.1 40.9001 141.1 40.7001 140.9C40.4001 140.6 40.3001 140.2 40.6001 139.8L146 0.400034C146.2 0.100034 146.7 3.58969e-05 147.1 0.300036C147.4 0.600036 147.5 1.00003 147.2 1.40003L41.8001 140.8C41.7001 141 41.5001 141.1 41.2001 141.1Z" fill="#030047"/>
<path d="M29.6 56.5L25.1 81.5L0.800049 71.9L10.8001 30.6C16.0001 31.2 18.6 36 20.2 41.3C20.3 41.6 20.4 41.9 20.5 42.3C20.8 43.2 21 44.1 21.2 45.1C21.3 45.4 21.4001 45.8 21.4001 46.1C21.8001 47.9 22.2 49.6 22.5 51.1C24.4 58.5 29.6 56.5 29.6 56.5Z" fill="white"/>
<path d="M25.7 82.5L0 72.4L10.3 29.9L11 30C17.2 30.7 19.7 36.7 21 41.2C21.1 41.5 21.2 41.9 21.3 42.2C21.6 43.2 21.8 44.1 22 45C22.1 45.3 22.2 45.7 22.2 46C22.4 46.7 22.5 47.5 22.7 48.2C22.9 49.2 23.1 50.1 23.3 51C23.9 53.4 24.8 54.9 26.2 55.6C27.8 56.4 29.3 55.9 29.3 55.9L30.5 55.4L25.7 82.5ZM1.7 71.5L24.5 80.5L28.6 57.5C27.8 57.6 26.6 57.5 25.4 56.9C23.7 56 22.4 54.1 21.8 51.3C21.6 50.4 21.4 49.5 21.2 48.5C21 47.8 20.9 47.1 20.7 46.3C20.6 46 20.6 45.6 20.5 45.3C20.3 44.4 20.1 43.5 19.8 42.5C19.7 42.2 19.6 41.9 19.5 41.5C17.6 35.4 15 32.2 11.4 31.5L1.7 71.5Z" fill="#030047"/>
<path d="M109.2 94.6C79.4 84.8 25.7 53 25.7 53C25.7 53 17.2 84.9 14.7 92.9C14.7 92.9 47.2 106.4 60.2 113.9C60.2 113.9 120.7 109.9 119.5 101.9C118.3 93.9 109.2 94.6 109.2 94.6Z" fill="#030047"/>
<path d="M21.5 46.1L17.1 48.3C16.5 48.6 16 47.7 16.6 47.4L21.2 45.1C21.3 45.4 21.4 45.8 21.5 46.1Z" fill="#030047"/>
<path d="M20.6001 42.3L16.0001 44.6C15.4001 44.9 14.9001 44.0001 15.5001 43.7001L20.3001 41.3C20.4001 41.7 20.5001 42 20.6001 42.3Z" fill="#030047"/>
<path d="M133.3 148.3H48.1C46.8 148.3 45.5 147.6 44.8 146.5L33.6 128.4C32 125.8 33.8 122.5 36.9 122.5H122.1C123.4 122.5 124.7 123.2 125.4 124.3L136.7 142.4C138.2 145 136.3 148.3 133.3 148.3Z" fill="white"/>
<path d="M133.3 149.1H48.1C46.5 149.1 45.1 148.3 44.2 146.9L32.9 128.8C32 127.4 32 125.6 32.8 124.2C33.6 122.7 35.1 121.8 36.8 121.8H122C123.6 121.8 125 122.6 125.9 124L137.2 142.1C138.1 143.5 138.1 145.3 137.3 146.7C136.5 148.1 135 149.1 133.3 149.1ZM36.9 123.3C35.8 123.3 34.8 123.9 34.2 124.9C33.6 125.9 33.7 127.1 34.3 128L45.6 146.1C46.2 147 47.1 147.6 48.2 147.6H133.4C134.5 147.6 135.5 147 136.1 146C136.7 145 136.6 143.8 136 142.9L124.7 124.8C124.1 123.9 123.2 123.3 122.1 123.3H36.9Z" fill="#030047"/>
<path d="M126.8 140.8H83.5C83.1 140.8 82.7 140.5 82.7 140C82.7 139.5 83 139.2 83.5 139.2H126.8C127.2 139.2 127.6 139.5 127.6 140C127.6 140.5 127.3 140.8 126.8 140.8Z" fill="#030047"/>
<path d="M123.3 131.7H94C93.6 131.7 93.2 131.4 93.2 130.9C93.2 130.4 93.5 130.1 94 130.1H123.3C123.7 130.1 124.1 130.4 124.1 130.9C124.1 131.4 123.7 131.7 123.3 131.7Z" fill="#030047"/>
<path d="M61.3999 188.6L82.4999 182.3L89.2999 205.5L48.6999 217.9C46.5999 213.1 49.3999 208.5 53.0999 204.4C53.2999 204.2 53.5999 203.9 53.7999 203.7C54.4999 203 55.0999 202.3 55.7999 201.7C55.9999 201.5 56.2999 201.2 56.4999 201C57.7999 199.8 59.0999 198.6 60.1999 197.5C65.7999 192.1 61.3999 188.6 61.3999 188.6Z" fill="white"/>
<path d="M48.2999 218.8L47.9999 218.2C45.4999 212.5 49.3999 207.3 52.4999 203.9C52.6999 203.6 52.9999 203.4 53.1999 203.1C53.8999 202.4 54.5999 201.7 55.2999 201.1C55.4999 200.9 55.7999 200.6 56.0999 200.4C56.5999 199.9 57.1999 199.4 57.6999 198.9C58.3999 198.2 59.0999 197.6 59.7999 196.9C61.4999 195.2 62.3999 193.6 62.2999 192.1C62.1999 190.3 60.9999 189.3 60.8999 189.3L59.7999 188.4L82.8999 181.5L90.1999 206.2L48.2999 218.8ZM62.7999 188.9C63.2999 189.6 63.7999 190.6 63.7999 191.9C63.8999 193.9 62.8999 195.9 60.7999 197.9C60.0999 198.5 59.3999 199.2 58.6999 199.9C58.1999 200.4 57.5999 200.9 57.0999 201.4C56.7999 201.6 56.5999 201.9 56.3999 202.1C55.6999 202.7 55.0999 203.4 54.3999 204.1C54.1999 204.3 53.8999 204.6 53.6999 204.8C49.3999 209.5 47.8999 213.4 49.1999 216.9L88.3999 204.9L81.9999 183.1L62.7999 188.9Z" fill="#030047"/>
<path d="M56.5998 200.8L60.6998 203.4C61.1998 203.8 60.7998 204.6 60.1998 204.3L55.7998 201.5C56.0998 201.3 56.3998 201.1 56.5998 200.8Z" fill="#030047"/>
<path d="M53.7999 203.6L58.0999 206.4C58.5999 206.7 58.1999 207.6 57.5999 207.3L53.0999 204.4C53.3999 204.1 53.5999 203.8 53.7999 203.6Z" fill="#030047"/>
<path d="M110.5 102.7C105.7 100.8 100.5 99.8 95.4999 98.4C65.1999 99.7 37.9999 104.1 39.1999 131.3C40.6999 163.6 54.0999 197.4 54.0999 197.4L89.6999 188.1C89.6999 188.1 80.2999 147.2 78.0999 137.2L103.7 120.1L110.5 102.7Z" fill="#030047"/>
<path d="M77.2999 136.8C76.9999 136.8 76.6999 136.6 76.5999 136.2L75.0999 130C74.9999 129.6 75.1999 129.2 75.5999 129.1C75.9999 129 76.3999 129.2 76.4999 129.6L77.9999 135.8C78.0999 136.2 77.8999 136.6 77.4999 136.7C77.4999 136.8 77.3999 136.8 77.2999 136.8Z" fill="white"/>
<path d="M51.8998 107.6C51.5998 107.6 51.2998 107.4 51.1998 107.1C50.9998 106.7 51.1998 106.3 51.5998 106.1C63.0998 101.5 83.1998 99.1001 104.8 106.1C105.2 106.2 105.4 106.6 105.3 107C105.2 107.4 104.8 107.6 104.4 107.5C83.1998 100.7 63.4998 103 52.1998 107.5C52.0998 107.6 51.9998 107.6 51.8998 107.6Z" fill="white"/>
<path d="M100.6 53.4C96.8 53.4 99.5 60.8 99.5 60.8C99.5 60.8 99.2 60.9 98.7 61.1C97.6 58.7 95.5 55.6 92.6 55.5C90.6 55.5 90.3 58.3 90.3 58.3C90.3 58.3 88.4 58.8 87.8 59.4C86.3 60.9 86.1 63.3 86.1 63.3C83.3 64.3 82.6 69.2 85.2 79.4C85.4 80.3 85.8 81.2 86.1 82.2C92.5 80.2 98.5 77.5 104 73.8C103.7 72.8 103.4 71.8 103.1 70.7C107.9 63.4 103.3 53.4 100.6 53.4Z" fill="white"/>
<path d="M85.6001 83.2L85.3001 82.6C84.9001 81.6 84.6001 80.7 84.3001 79.7C81.8001 70 82.1001 64.5 85.2001 62.9C85.3001 62.1 85.8001 60.3 87.0001 59C87.5001 58.5 88.7001 58.1 89.4001 57.9C89.7001 56.6 90.5001 54.9 92.4001 54.9C94.8001 54.9 96.6001 56.6 97.9001 58.6C97.6001 57 97.4001 54.9 98.3001 53.7C98.6001 53.2 99.3001 52.6 100.5 52.6C101.7 52.6 102.9 53.7 104 55.7C106.2 59.7 106.9 65.9 103.8 70.9C104 71.5 104.1 72 104.3 72.5L104.8 74.2L104.3 74.5C98.8001 78.1 92.7001 81 86.2001 83L85.6001 83.2ZM92.4001 56.4C91.1001 56.4 90.8001 58.5 90.8001 58.6L90.7001 59.1L90.2001 59.2C89.4001 59.4 88.3001 59.8 88.1001 60.1C86.8001 61.4 86.6001 63.5 86.6001 63.5V64L86.1001 64.2C83.5001 65.1 83.4001 70.5 85.7001 79.4C85.9001 80 86.1001 80.7 86.3001 81.4C92.3001 79.5 97.9001 76.9 102.9 73.6L102.7 73C102.5 72.4 102.3 71.7 102.1 71.1L102 70.8L102.2 70.5C105.2 66 104.4 60.1 102.5 56.6C101.6 54.9 100.7 54.3 100.3 54.3C99.7001 54.3 99.5001 54.5 99.4001 54.7C98.6001 55.8 99.3001 59 99.9001 60.7L100.2 61.4L99.5001 61.7C99.5001 61.7 99.2001 61.8 98.8001 62L98.1001 62.3L97.8001 61.6C96.9001 59.2 95.0001 56.5 92.4001 56.4C92.5001 56.4 92.5001 56.4 92.4001 56.4Z" fill="#030047"/>
<path d="M89.3001 64.5001C88.8001 64.1001 88.1001 64.8 88.6001 65.2C90.2001 66.7 91.8001 68.5 92.5001 70.6C92.8001 71.5 93.4001 73.2001 91.6001 73.5001C90.8001 73.6001 90.0001 72.7 89.5001 72.1C88.9001 71.3 88.4001 70.5 87.7001 69.9C87.2001 69.5 86.5001 70.2 87.0001 70.6C88.2001 71.8 88.9001 73.6 90.6001 74.3C91.8001 74.8 93.1001 74.5 93.6001 73.3C95.0001 70.3 91.3001 66.3001 89.3001 64.5001Z" fill="#030047"/>
<path d="M97.8002 61.2C97.4002 60.7 96.7002 61.4 97.1002 61.9C98.8002 63.8 98.4002 66.6 96.3002 68C95.9002 65.4 93.5002 62.6 92.1002 61C91.7002 60.5 91.0002 61.2 91.4002 61.7C93.0002 63.5 97.4002 68.5 94.2002 70.7C93.7002 71.1 94.2002 71.9 94.7002 71.6C95.8002 70.9 96.2002 70 96.3002 69C96.4002 69.1 96.6002 69.1 96.7002 69C99.5002 67.2 99.9002 63.7 97.8002 61.2Z" fill="#030047"/>
<path d="M84.4999 83.7001C84.2999 83.7001 84.1999 83.7001 83.9999 83.5001C83.6999 83.2001 83.5999 82.8001 83.8999 82.4001L90.3999 73.8001C90.5999 73.5001 91.0999 73.4001 91.4999 73.7001C91.7999 74.0001 91.8999 74.4001 91.5999 74.8001L85.0999 83.4001C84.9999 83.6001 84.7999 83.7001 84.4999 83.7001Z" fill="#030047"/>
<path d="M108.3 91.4C107.7 91.4 107 91.4 106.4 91.3C106 91.3 105.7 90.9 105.7 90.5C105.7 90.1 106.1 89.8 106.5 89.8C117.2 91 125.5 80.6 129.9 74.9C130.2 74.6 130.6 74.5 131 74.8C131.3 75.1 131.4 75.5 131.1 75.9C126.7 81.4 118.8 91.4 108.3 91.4Z" fill="#030047"/>
<path d="M236.6 42.5C242.675 42.5 247.6 37.5751 247.6 31.5C247.6 25.4249 242.675 20.5 236.6 20.5C230.525 20.5 225.6 25.4249 225.6 31.5C225.6 37.5751 230.525 42.5 236.6 42.5Z" fill="white"/>
<path d="M236.6 43.3C230.1 43.3 224.9 38 224.9 31.6C224.9 25.2 230.2 19.9 236.6 19.9C243.1 19.9 248.3 25.2 248.3 31.6C248.3 38 243.1 43.3 236.6 43.3ZM236.6 21.3C231 21.3 226.4 25.9 226.4 31.5C226.4 37.1 231 41.7 236.6 41.7C242.2 41.7 246.8 37.1 246.8 31.5C246.8 25.9 242.3 21.3 236.6 21.3Z" fill="#030047"/>
<path d="M283.9 17.6001H235.9V26.8001H283.9V17.6001Z" fill="white"/>
<path d="M284.6 27.5H235.1V16.8H284.6V27.5ZM236.6 26H283.1V18.3H236.6V26Z" fill="#030047"/>
<path d="M123.1 208.5C122.9 208.5 122.7 208.4 122.6 208.3L112.3 198C112 197.7 112 197.2 112.3 196.9C112.6 196.6 113.1 196.6 113.4 196.9L123.7 207.2C124 207.5 124 208 123.7 208.3C123.5 208.4 123.3 208.5 123.1 208.5Z" fill="#030047"/>
<path d="M112.9 208.5C112.7 208.5 112.5 208.4 112.4 208.3C112.1 208 112.1 207.5 112.4 207.2L122.7 196.9C123 196.6 123.5 196.6 123.8 196.9C124.1 197.2 124.1 197.7 123.8 198L113.5 208.3C113.2 208.4 113 208.5 112.9 208.5Z" fill="#030047"/>
<path d="M123.1 186.3C123 186.3 122.8 186.3 122.7 186.2C122.4 186 122.3 185.5 122.5 185.2L127.9 176.9C128.1 176.6 128.6 176.5 128.9 176.7C129.2 176.9 129.3 177.4 129.1 177.7L123.7 186C123.6 186.2 123.3 186.3 123.1 186.3Z" fill="#030047"/>
<path d="M128.5 190.6C128.3 190.6 128.1 190.5 127.9 190.3C127.6 190 127.7 189.5 128 189.2L133.5 184.9C133.8 184.6 134.3 184.7 134.6 185C134.9 185.3 134.8 185.8 134.5 186.1L129 190.4C128.8 190.5 128.6 190.6 128.5 190.6Z" fill="#030047"/>
<path d="M51.8999 59.1C51.6999 59.1 51.3999 59 51.2999 58.8L47.3999 53.4C47.1999 53.1 47.1999 52.6 47.5999 52.4C47.8999 52.2 48.3999 52.2 48.5999 52.6L52.4999 58.0001C52.6999 58.3001 52.6999 58.8001 52.2999 59.0001C52.1999 59.1001 52.0999 59.1 51.8999 59.1Z" fill="#030047"/>
<path d="M51.8998 39.6C51.5998 39.6 51.2998 39.4 51.1998 39.1C51.0998 38.7 51.2998 38.3 51.6998 38.1L61.2998 34.7C61.6998 34.6 62.0998 34.8 62.2998 35.2C62.3998 35.6 62.1998 36 61.7998 36.2L52.1998 39.6C52.0998 39.5 51.9998 39.6 51.8998 39.6Z" fill="#030047"/>
<path d="M209.17 73.6522L201.116 69.0022L196.466 77.056L204.52 81.706L209.17 73.6522Z" fill="white"/>
<path d="M204.8 82.7L195.5 77.3L200.9 68L210.2 73.4L204.8 82.7ZM197.5 76.7L204.2 80.6L208.1 73.9L201.4 70L197.5 76.7Z" fill="#030047"/>
<path d="M229.4 142.2C237.132 142.2 243.4 135.932 243.4 128.2C243.4 120.468 237.132 114.2 229.4 114.2C221.668 114.2 215.4 120.468 215.4 128.2C215.4 135.932 221.668 142.2 229.4 142.2Z" fill="white"/>
<path d="M229.4 143C221.2 143 214.6 136.4 214.6 128.2C214.6 120 221.2 113.4 229.4 113.4C237.6 113.4 244.2 120 244.2 128.2C244.2 136.4 237.6 143 229.4 143ZM229.4 115C222.1 115 216.1 121 216.1 128.3C216.1 135.6 222.1 141.6 229.4 141.6C236.7 141.6 242.7 135.6 242.7 128.3C242.7 121 236.8 115 229.4 115Z" fill="#030047"/>
<path d="M282.7 172C282.7 184.6 272.5 194.8 259.9 194.8C247.3 194.8 237.1 186.3 237.1 172C237.1 159.4 247.3 149.2 259.9 149.2C272.5 149.2 282.7 159.4 282.7 172Z" fill="#FAAD13"/>
<path d="M236.6 94.3C234.8 103.2 223.6 119.8 205.7 120.5C186.6 121.3 174.1 113.2 165.7 104.7C159.3 116.2 143.3 133 143.3 133C134.9 120.9 101.6 90.7001 101.6 90.7001C101.6 90.7001 119.4 91.7001 127.6 78.9001C134.6 68.1001 149.8 66.2 161.3 72.8C162.3 73.3 163.1 73.9001 163.9 74.5001C180.7 83.8001 195.7 95.3001 202.4 91.5001C209.4 87.6001 221 79.6 227 73.8L227.1 73.7001C227.2 74.4001 227.6 75.1001 227.9 76.0001C229.4 82.3001 232.9 89.9 236.6 94.3Z" fill="#FAAD13"/>
<path d="M143.2 134.2L142.7 133.4C134.4 121.5 101.4 91.6 101.1 91.3L99.5 89.9L101.6 90C101.8 90 119 90.8 126.9 78.6C133.8 67.9 149.1 65.1 161.6 72.2C162.5 72.7 163.4 73.3 164.2 73.9C168.2 76.1 172 78.4 175.7 80.7C187.2 87.6 197.2 93.6 201.9 90.9C209.1 86.8 220.5 78.9 226.3 73.3C226.4 73.2 226.4 73.2 226.5 73.1L227.6 72.3L227.7 73.7C227.7 74 227.9 74.3 228 74.7C228.1 75 228.3 75.4 228.4 75.9C230 82.4 233.5 89.7 236.9 93.8L237.1 94.1L237 94.5C235.3 103.2 224 120.5 205.4 121.3C189.8 122 176.7 117 165.5 105.9C158.8 117.3 143.6 133.4 143.5 133.5L143.2 134.2ZM103.5 91.5C109.9 97.4 135.2 120.7 143.3 131.8C146.3 128.6 159.4 114.3 165 104.3L165.5 103.4L166.2 104.1C177.2 115.3 190.1 120.4 205.6 119.7C223.1 118.9 233.9 102.8 235.7 94.4C232.2 90.1 228.7 82.7 227.1 76.2C227 75.9 226.9 75.5 226.7 75.2C226.7 75.2 226.7 75.1 226.6 75.1C220.5 80.8 209.7 88.2 202.7 92.2C197.2 95.3 187.4 89.4 175 82C171.3 79.8 167.4 77.5 163.5 75.2L163.4 75.1C162.6 74.5 161.8 73.9 160.9 73.4C149 66.7 134.6 69.2 128.2 79.3C121.4 90 108.5 91.4 103.5 91.5Z" fill="#FAAD13"/>
<path d="M244.1 70.5001C243.5 70.2001 243 71.1001 243.6 71.4001C245.6 72.5001 246 75.0001 244.2 76.6001C243.7 77.0001 244.4 77.7001 244.9 77.3001C247.1 75.3001 246.7 71.9001 244.1 70.5001Z" fill="#030047"/>
<path d="M248.5 68.9C248.1 68.4 247.4 69.1 247.8 69.6C249.5 71.6 249.5 74.3 247.9 76.4C247.5 76.9 248.2 77.6 248.6 77.1C250.6 74.6 250.6 71.4 248.5 68.9Z" fill="#FF3E6C"/>
<path d="M162.8 103.7C162.5 103.7 162.3 103.6 162.1 103.3L160 99.5C159.8 99.1 159.9 98.7 160.3 98.5C160.7 98.3 161.1 98.4 161.3 98.8L163.4 102.6C163.6 103 163.5 103.4 163.1 103.6C163.1 103.7 162.9 103.7 162.8 103.7Z" fill="#030047"/>
<path d="M241.7 1.6H125.8C125.4 1.6 125 1.3 125 0.800003C125 0.300003 125.3 0 125.8 0H241.7C242.1 0 242.5 0.300003 242.5 0.800003C242.5 1.3 242.1 1.6 241.7 1.6Z" fill="#030047"/>
<path d="M130.5 133.8C130.3 133.8 130.2 133.8 130 133.6C129.7 133.3 129.6 132.9 129.9 132.5L229.8 0.400034C230 0.100034 230.5 3.58969e-05 230.9 0.300036C231.2 0.600036 231.3 1.00003 231 1.40003L131.1 133.6C131 133.7 130.7 133.8 130.5 133.8Z" fill="#030047"/>
<path d="M154.6 44.3C151.7 45.4 148.2 47 145 46C142.1 45.1 140.8 42.4 138.8 40.2C135.7 36.7 131.4 34.6 126.8 34.2C116.7 33.4 109.7 41.9 113.8 51.5C117.5 60 126.4 65.5 135.4 66.5C144.1 67.5 155.9 63.9 157.6 54.1C157.7 53.3 157.6 52.5 157.4 51.7C161.3 49.4 159.2 42.6 154.6 44.3Z" fill="#030047"/>
<path d="M163.2 40.0999C156.2 38.6999 149.2 43.8999 147.6 51.7999V51.8999C146.9 51.7999 146.2 51.7999 145.5 51.7999C141.2 52.1999 139.4 55.8999 141.1 58.8999C142.6 61.4999 146 63.5999 149.6 62.6999C151.4 65.4999 154.2 67.6999 157.5 68.5999C167.3 71.3999 171.5 64.7999 173.1 56.8999C174.7 48.9999 170.2 41.4999 163.2 40.0999Z" fill="white"/>
<path d="M161.8 69.9C160.4 69.9 158.9 69.7 157.3 69.2C154.1 68.3 151.3 66.2 149.3 63.4C145.4 64.1 142 61.7 140.5 59.1C139.6 57.5 139.5 55.6 140.3 54C141.2 52.2 143.1 51.1 145.5 50.9C146 50.9 146.5 50.9 147.1 50.9C149 42.9 156.2 37.8 163.4 39.2C167 39.9 170.1 42.2 172.1 45.5C174.1 48.8 174.7 52.8 173.9 56.8C172.8 62.5 170.6 66.3 167.3 68.3C165.7 69.5 163.8 69.9 161.8 69.9ZM150 61.8L150.3 62.2C152.1 64.9 154.7 66.9 157.7 67.8C161.2 68.8 164.1 68.6 166.5 67.2C169.4 65.5 171.3 61.9 172.4 56.7C173.1 53.1 172.5 49.4 170.8 46.4C169 43.4 166.3 41.4 163.1 40.8C156.5 39.5 149.9 44.5 148.4 51.9L148.3 52.6H147.6C146.9 52.5 146.3 52.5 145.7 52.5C143.9 52.7 142.4 53.5 141.7 54.8C141.1 55.9 141.2 57.2 141.8 58.4C143.1 60.6 146.1 62.7 149.5 61.8H150Z" fill="#030047"/>
<path d="M171.4 46C179.2 43.7 172 35.7 163.2 40.1C156.2 38.7 149.2 43.9 147.6 51.8C147.6 51.9 147.6 52.1 147.5 52.2C148.6 52.2 152.7 52.6 156.6 49.6C162 49.2 169.3 45.6 171.4 46Z" fill="#030047"/>
<path d="M163.842 55.4187C164.151 54.9607 164.03 54.3392 163.572 54.0305C163.114 53.7218 162.492 53.8427 162.184 54.3007C161.875 54.7586 161.996 55.3802 162.454 55.6889C162.912 55.9976 163.533 55.8766 163.842 55.4187Z" fill="#030047"/>
<path d="M169.3 60.5C169.4 58.3 169.3 56 168.8 53.9C168.7 53.3 167.7 53.5 167.8 54.1C168.3 56.2 168.5 58.3 168.3 60.5C168.2 61 169.2 61.1 169.3 60.5Z" fill="#030047"/>
<path d="M149.9 57.5C148.7 55.4 146.3 54.4 144.1 55.1C143.5 55.3 143.7 56.3 144.3 56.1C146.1 55.6 148.1 56.3 149.1 58C149.3 58.5 150.2 58 149.9 57.5Z" fill="#030047"/>
<path d="M108.3 91.4C107.7 91.4 107 91.4 106.4 91.3C106 91.3 105.7 90.9 105.7 90.5C105.7 90.1 106.1 89.8 106.5 89.8C117.2 91 125.5 80.6 129.9 74.9C130.2 74.6 130.6 74.5 131 74.8C131.3 75.1 131.4 75.5 131.1 75.9C126.7 81.4 118.8 91.4 108.3 91.4Z" fill="#030047"/>
<path d="M253.6 64.6001C253.6 62.1001 241.7 60.5001 233 67.8001C230.1 70.3001 227.3 73.1001 224.4 75.9001C226.3 80.7001 232.8 92.8001 234.6 94.2001C236.2 90.2001 238.8 86.2001 240 84.9001C240.8 84.1001 242.9 82.3001 245.8 80.5001C246.7 82.1001 255 76.8001 253.3 72.4001C252.8 71.1001 251.5 68.5001 251 67.8001C252.5 67.3001 253.6 66.4001 253.6 64.6001Z" fill="white"/>
<path d="M234.9 95.5L234.1 94.9C232.1 93.3 225.5 80.9 223.7 76.3L223.5 75.8L225.1 74.2C227.5 71.8 230 69.4 232.5 67.3C240 61 249.5 61.2 252.7 62.7C254.1 63.3 254.3 64.1 254.3 64.7C254.3 66.4 253.5 67.6 251.9 68.3C252.5 69.4 253.4 71.2 253.8 72.3C255.2 75.9 251.3 79.7 248.3 81.1C247 81.7 246.1 81.7 245.6 81.5C242.8 83.3 241 84.9 240.4 85.5C239.4 86.6 236.7 90.4 235.2 94.5L234.9 95.5ZM225.2 76.2C227.1 80.8 232.1 90 234.3 92.9C235.9 89.3 238.2 85.8 239.4 84.5C240.3 83.5 242.5 81.7 245.3 80L246 79.6L246.3 80.2C246.8 80.3 249 79.4 250.8 77.5C251.7 76.5 253.2 74.6 252.5 72.8C252 71.5 250.7 69 250.3 68.3L249.8 67.5L250.7 67.2C252.2 66.7 252.9 66 252.9 64.7C252.9 64.7 252.8 64.4 252.1 64.1C249 62.7 240.1 62.9 233.5 68.5C231 70.6 228.7 72.9 226.2 75.3L225.2 76.2Z" fill="#030047"/>
<path d="M250.5 71.8C249 72.9 246.9 74 245.5 75.4C245.5 75.4 245.5 75.4 245.4 75.4C242.8 74.4 243.9 71.8 245.5 70.5C246.7 69.5 248.1 68.7 249.6 68.3C250.2 68.1 249.9 67.1 249.3 67.3C247 68 244.1 69.5 243.1 71.8C242.3 73.6 243.2 75.4 244.8 76.2C243.6 77.9 243.8 78.6 245 80C245.4 80.5 246.1 79.8 245.7 79.3C244.8 78.2 244.8 77.6 246 76.4C246.4 75.9 247 75.6 247.5 75.2C248.6 74.4 249.8 73.5 251 72.7C251.5 72.3 251 71.4 250.5 71.8Z" fill="#030047"/>
<path d="M256.6 70.4C256.5 70.4 256.5 70.4 256.4 70.4L227.3 63.7C226.9 63.6 226.6 63.2 226.7 62.8C226.8 62.4 227.2 62.1 227.6 62.2L256.7 68.9C257.1 69 257.4 69.4 257.3 69.8C257.3 70.2 257 70.4 256.6 70.4Z" fill="#030047"/>
<path d="M231.8 73C236.3 66.6 241.2 63.7 245.4 64.5C249.6 65.3 241.2 70 241.2 70C241.2 70 240.9 77 239.5 78.9C238.1 80.8 231.8 73 231.8 73Z" fill="white"/>
<path d="M246.4 64.6001C245.1 62.2001 241.2 64.1001 239.6 64.9001C236.4 66.4001 233.8 68.7001 231.7 71.4001C231.3 71.9001 232.2 72.4001 232.6 71.9001C234.6 69.3001 237.2 67.1001 240.2 65.7001C240.9 65.4001 241.8 64.9001 242.6 64.8001C245.7 64.1001 246 66.0001 244.6 67.3001C243.4 68.5001 241.8 69.3001 240.3 70.0001C240.1 70.1001 240 70.4001 240.1 70.6001C240.9 73.1001 240.7 75.5001 239.4 77.8001C239.1 78.4001 239.9 78.9001 240.3 78.3001C241.1 76.8001 241.7 75.3001 241.7 73.6001C241.7 73.0001 241.4 72.1001 241.5 71.5001C241.6 70.4001 242 70.5001 242.9 69.9001C244.3 69.0001 247.6 66.8001 246.4 64.6001Z" fill="#030047"/>
<path d="M360.5 143.2H243.1L211.8 111.1L202 101.1H319.4L329.2 111.1L360.5 143.2Z" fill="white"/>
<path d="M362.3 143.9H242.8L200.2 100.4H319.7L362.3 143.9ZM243.5 142.4H358.8L319.1 101.8H203.8L243.5 142.4Z" fill="#030047"/>
<path d="M256.7 119.6H230.4L223.4 112.4L221.2 110.1H247.5L249.7 112.4L256.7 119.6Z" fill="#FAAD13"/>
<path d="M309.5 135.8H267.8L262.9 130.8L261.4 129.2H303.1L304.6 130.8L309.5 135.8Z" fill="#FAAD13"/>
<path d="M326.8 135.8H313.9L309.1 130.8L307.5 129.2H320.4L321.9 130.8L326.8 135.8Z" fill="#FAAD13"/>
<path d="M329.2 126.1H316.4L311.5 121.1L310 119.6H322.8L324.4 121.1L329.2 126.1Z" fill="#FAAD13"/>
<path d="M344.6 135.8H331.8L326.9 130.8L325.3 129.2H338.2L339.7 130.8L344.6 135.8Z" fill="#FAAD13"/>
<path d="M256.7 64.3C256.6 64.3 256.5 64.3 256.4 64.3C256 64.2 255.8 63.7 256 63.3L259.8 53.1C259.9 52.7 260.4 52.5 260.8 52.7C261.2 52.8 261.4 53.3 261.2 53.7L257.4 63.9C257.3 64.2 257 64.3 256.7 64.3Z" fill="#030047"/>
<path d="M261.4 67.0001C261.2 67.0001 261.1 66.9001 260.9 66.8001C260.6 66.5001 260.5 66.1001 260.8 65.7001L264.9 60.3001C265.2 60.0001 265.6 59.9001 266 60.2001C266.4 60.5001 266.4 60.9001 266.1 61.3001L262 66.7001C261.8 66.9001 261.6 67.0001 261.4 67.0001Z" fill="#030047"/>
<path d="M355.1 112.3H275.1L253.8 90.5001L247.1 83.7001H327.1L333.8 90.5001L355.1 112.3Z" fill="white"/>
<path d="M356.9 113.1H274.8L245.3 82.9H327.4L356.9 113.1ZM275.4 111.6H353.3L326.8 84.4H248.9L275.4 111.6Z" fill="#030047"/>
<path d="M337.9 107.9H311.6L304.6 100.7L302.4 98.5H328.7L330.9 100.7L337.9 107.9Z" fill="#FAAD13"/>
<path d="M333.8 90.5001H253.8L247.1 83.7001H327.1L333.8 90.5001Z" fill="white"/>
<path d="M335.5 91.2H253.5L245.4 82.9H327.5L335.5 91.2ZM254.1 89.7H332L326.8 84.4H248.9L254.1 89.7Z" fill="#030047"/>
<path d="M295.9 79.8999H291.9C290.7 79.8999 289.8 78.8999 289.8 77.7999C289.8 76.5999 290.8 75.7 291.9 75.7H295.9C297.1 75.7 298 76.6999 298 77.7999C298.1 78.8999 297.1 79.8999 295.9 79.8999Z" fill="#030047"/>
<path d="M304.2 79.8999H303.4C302.2 79.8999 301.3 78.8999 301.3 77.7999C301.3 76.5999 302.3 75.7 303.4 75.7H304.2C305.4 75.7 306.3 76.6999 306.3 77.7999C306.3 78.8999 305.4 79.8999 304.2 79.8999Z" fill="#030047"/>
<path d="M317.4 78.4999H310C309.6 78.4999 309.2 78.1999 309.2 77.6999C309.2 77.1999 309.5 76.8999 310 76.8999H317.4C317.8 76.8999 318.2 77.1999 318.2 77.6999C318.2 78.1999 317.8 78.4999 317.4 78.4999Z" fill="#030047"/>
<path d="M346.1 95.8999H280.9L261.3 75.5999C261 75.2999 261 74.8 261.3 74.5C261.6 74.2 262.1 74.2 262.4 74.5L281.5 94.3999H342.5L324.5 75.5L319.5 70.2999H256.7C256.3 70.2999 255.9 70 255.9 69.5C255.9 69 256.2 68.7 256.7 68.7H320.1L325.6 74.2999L346.1 95.8999Z" fill="#030047"/>
<path d="M319.6 87.7999H278.9C278.5 87.7999 278.1 87.5 278.1 87C278.1 86.5 278.4 86.2 278.9 86.2H319.6C320 86.2 320.4 86.5 320.4 87C320.4 87.5 320 87.7999 319.6 87.7999Z" fill="#030047"/>
</svg>
