<svg width="48" height="48" viewBox="0 0 48 48" fill="none" xmlns="http://www.w3.org/2000/svg">
<path d="M32.4615 18.8778C31.8322 19.1538 31.1616 19.3368 30.4625 19.4257C31.1817 18.9962 31.7307 18.3214 31.9887 17.5081C31.3182 17.9079 30.5778 18.1903 29.7887 18.3479C29.152 17.6699 28.2445 17.25 27.2545 17.25C25.3337 17.25 23.7874 18.809 23.7874 20.7203C23.7874 20.9953 23.8107 21.2597 23.8678 21.5114C20.9835 21.3708 18.4312 19.9884 16.7167 17.8825C16.4174 18.4018 16.2418 18.9963 16.2418 19.6362C16.2418 20.8377 16.8606 21.9028 17.7829 22.5194C17.2255 22.5088 16.6786 22.347 16.2154 22.0921C16.2154 22.1027 16.2154 22.1164 16.2154 22.1302C16.2154 23.8162 17.418 25.2165 18.995 25.5391C18.7126 25.6163 18.4048 25.6534 18.0854 25.6534C17.8633 25.6534 17.639 25.6407 17.4285 25.5941C17.8781 26.9681 19.1536 27.9782 20.6704 28.011C19.49 28.9343 17.9912 29.4907 16.3687 29.4907C16.0842 29.4907 15.8113 29.478 15.5385 29.4431C17.0753 30.4341 18.8966 31 20.8608 31C27.245 31 30.7354 25.7115 30.7354 21.1275C30.7354 20.9741 30.7301 20.8261 30.7227 20.679C31.4112 20.1904 31.9898 19.5801 32.4615 18.8778Z" fill="#4F4F4F"/>
<circle cx="24" cy="24" r="24" fill="#2D9CDB" fill-opacity="0.2"/>
</svg>
