<svg width="100" height="101" viewBox="0 0 100 101" fill="none" xmlns="http://www.w3.org/2000/svg">
<g clip-path="url(#clip0)">
<path d="M85.4276 14.595C76.027 5.18875 63.5271 0.00573895 50.2092 0C22.7657 0 0.432219 22.3243 0.421232 49.7641C0.418034 58.5354 2.71005 67.0974 7.06655 74.6446L0.00323486 100.433L26.3964 93.5129C33.6682 97.4783 41.8558 99.5679 50.1878 99.5712H50.209H50.2092C77.6483 99.5712 99.9851 77.243 99.9968 49.8045C100.001 36.5059 94.827 24.0018 85.4276 14.595V14.595ZM50.2092 91.1659H50.1931C42.7663 91.162 35.4835 89.1682 29.131 85.3992L27.6192 84.5031L11.957 88.6091L16.1386 73.3455L15.1536 71.7806C11.011 65.1943 8.82397 57.5829 8.82709 49.7673C8.83619 26.9603 27.3989 8.40567 50.2249 8.40567C61.2784 8.41026 71.6674 12.7184 79.4809 20.5366C87.2939 28.3547 91.5934 38.7477 91.5902 49.8009C91.5805 72.6088 73.0171 91.1659 50.2092 91.1659V91.1659Z" fill="#E0E0E0"/>
<path d="M2.28876 97.5713L9.02943 72.9611C4.87086 65.7585 2.68396 57.587 2.68658 49.2181C2.69749 23.0322 24.011 1.72827 50.1986 1.72827C62.9087 1.73401 74.838 6.68 83.8071 15.6568C92.7782 24.6335 97.7157 36.5655 97.7105 49.2552C97.6996 75.4417 76.3848 96.7475 50.2005 96.7475C50.1986 96.7475 50.2018 96.7475 50.2005 96.7475H50.1793C42.228 96.745 34.415 94.7492 27.4758 90.9676L2.28876 97.5713V97.5713Z" fill="url(#paint0_linear)"/>
<path fill-rule="evenodd" clip-rule="evenodd" d="M37.9061 28.6368C36.985 26.5891 36.0152 26.5481 35.1389 26.5123C34.4221 26.4815 33.6015 26.4834 32.7822 26.4834C31.9623 26.4834 30.6299 26.7915 29.5032 28.022C28.3758 29.2524 25.1986 32.2269 25.1986 38.2765C25.1986 44.3267 29.6057 50.1727 30.22 50.9937C30.8349 51.8136 38.7273 64.6251 51.2267 69.5537C61.6147 73.6498 63.7286 72.835 65.9834 72.6301C68.2382 72.4251 73.2589 69.6562 74.2838 66.7848C75.3087 63.914 75.3087 61.4532 75.0012 60.9388C74.6938 60.4264 73.8738 60.119 72.6439 59.5041C71.4141 58.8892 65.3684 55.9141 64.241 55.5041C63.1137 55.0942 62.2937 54.8892 61.4738 56.1203C60.6539 57.3501 58.2985 60.119 57.5811 60.9388C56.8636 61.7606 56.1462 61.8631 54.9163 61.2482C53.6864 60.6314 49.7258 59.3343 45.0273 55.1454C41.3716 51.8865 38.9035 47.8615 38.186 46.6305C37.4686 45.4007 38.1091 44.7346 38.726 44.1216C39.2782 43.5707 39.9559 42.6862 40.5709 41.9682C41.1845 41.2501 41.3895 40.7377 41.7994 39.9179C42.2094 39.0967 42.0044 38.3788 41.6969 37.7639C41.3895 37.149 38.9996 31.0682 37.9061 28.6368V28.6368Z" fill="white"/>
<path d="M85.0209 14.4367C75.7282 5.1385 63.3717 0.0150983 50.2069 0.00927734C23.0783 0.00927734 1.00121 22.0773 0.990308 49.2021C0.98711 57.8728 3.2528 66.3364 7.55929 73.7971L0.577148 99.2892L26.6674 92.4486C33.8558 96.3684 41.9493 98.4341 50.1857 98.4373H50.2066H50.2069C77.3309 98.4373 99.4112 76.3654 99.4228 49.2418C99.4273 36.0961 94.3123 23.7356 85.0209 14.4367V14.4367ZM50.2069 90.1287H50.1909C42.8494 90.1249 35.65 88.154 29.3706 84.4282L27.8761 83.5424L12.3936 87.6013L16.5272 72.5128L15.5535 70.966C11.4584 64.4553 9.29654 56.9312 9.29974 49.2054C9.30868 26.6602 27.6583 8.31862 50.2223 8.31862C61.1491 8.32313 71.4186 12.5818 79.1425 20.3102C86.8658 28.0386 91.116 38.3123 91.1128 49.2388C91.1031 71.7846 72.7528 90.1287 50.2069 90.1287Z" fill="white"/>
</g>
<defs>
<linearGradient id="paint0_linear" x1="49.9997" y1="97.5713" x2="49.9997" y2="1.72843" gradientUnits="userSpaceOnUse">
<stop stop-color="#20B038"/>
<stop offset="1" stop-color="#60D66A"/>
</linearGradient>
<clipPath id="clip0">
<rect width="100" height="100.433" fill="white"/>
</clipPath>
</defs>
</svg>
